<?xml version="1.0" encoding="UTF-8"?>
<svg version="1.1" xmlns="http://www.w3.org/2000/svg" width="626" height="626">
<path d="M0 0 C206.58 0 413.16 0 626 0 C626 206.58 626 413.16 626 626 C419.42 626 212.84 626 0 626 C0 419.42 0 212.84 0 0 Z " fill="#FEFEFE" transform="translate(0,0)"/>
<path d="M0 0 C0.72552063 -0.00078552 1.45104126 -0.00157104 2.19854736 -0.00238037 C15.61724025 0.01482355 28.536416 1.41047418 41.74804688 3.84765625 C43.75979233 4.2085674 45.77740104 4.53783518 47.79882812 4.83984375 C54.06181791 5.7790949 59.60944928 7.16136079 65.4375 9.625 C66.99933419 10.26464896 68.56184793 10.90264091 70.125 11.5390625 C70.89328125 11.85391602 71.6615625 12.16876953 72.453125 12.49316406 C74.4950735 13.29905545 76.5407047 14.02358605 78.625 14.7109375 C94.94927721 20.16141256 110.25743383 29.67986452 123.6875 40.375 C124.56921875 41.06722656 125.4509375 41.75945312 126.359375 42.47265625 C133.42612438 48.13204452 140.09290911 54.18008128 146.6875 60.375 C147.32300781 60.95636719 147.95851563 61.53773438 148.61328125 62.13671875 C174.80397246 86.9522424 190.6787658 122.41663463 199.5 156.75 C199.79221436 157.86991333 199.79221436 157.86991333 200.09033203 159.01245117 C203.13781021 171.44535666 204.02084968 183.84008026 203.94824219 196.58129883 C203.93752295 198.80773228 203.94821376 201.03335633 203.9609375 203.25976562 C203.97604884 217.23929169 202.28601702 230.75120232 199.375 244.4375 C199.1577124 245.46480225 198.9404248 246.49210449 198.71655273 247.55053711 C196.93083846 255.73650874 194.66503032 263.533276 191.6875 271.375 C191.24792969 272.57769531 190.80835938 273.78039062 190.35546875 275.01953125 C180.48841651 300.97830504 164.64305649 323.27227726 145.6875 343.375 C144.95789063 344.15875 144.22828125 344.9425 143.4765625 345.75 C112.80937805 377.67123289 63.91921618 400.43897347 19.6714325 402.46742249 C17.58625015 402.50554486 15.50348484 402.51374451 13.41796875 402.5078125 C12.27549431 402.50924759 12.27549431 402.50924759 11.10993958 402.51071167 C9.50908322 402.51138755 7.90822403 402.50957492 6.30737305 402.50537109 C3.89169977 402.50003688 1.4762143 402.50532484 -0.93945312 402.51171875 C-13.07565364 402.51922432 -24.55883504 401.79550817 -36.4375 399.125 C-37.43958496 398.90102539 -38.44166992 398.67705078 -39.47412109 398.44628906 C-67.65977479 392.02674871 -94.25584178 381.01835586 -117.3125 363.375 C-118.21613281 362.6840625 -119.11976563 361.993125 -120.05078125 361.28125 C-133.44131508 350.78540389 -146.14915161 339.06139657 -156.3125 325.375 C-156.97934814 324.48216309 -156.97934814 324.48216309 -157.65966797 323.57128906 C-189.80626624 280.24373229 -204.9854111 225.22845626 -197.18579102 171.47338867 C-196.37501009 166.73701389 -195.39654436 162.05579648 -194.3125 157.375 C-194.10882813 156.46041016 -193.90515625 155.54582031 -193.6953125 154.60351562 C-185.58299837 119.02450828 -166.79346627 87.03541205 -141.69384766 60.81933594 C-140.46741961 59.53698382 -139.25420513 58.24202339 -138.04296875 56.9453125 C-118.36703369 36.42977353 -91.28487934 19.98399231 -64.3125 11.375 C-62.99626656 10.86367511 -61.68316906 10.34411764 -60.375 9.8125 C-54.20029567 7.47037077 -47.70615434 5.99426246 -41.3125 4.375 C-40.5184375 4.16746094 -39.724375 3.95992188 -38.90625 3.74609375 C-26.18100321 0.63819694 -13.04340926 -0.03048141 0 0 Z " fill="#BF957B" transform="translate(310.3125,111.625)"/>
<path d="M0 0 C0.72552063 -0.00078552 1.45104126 -0.00157104 2.19854736 -0.00238037 C15.61724025 0.01482355 28.536416 1.41047418 41.74804688 3.84765625 C43.75979233 4.2085674 45.77740104 4.53783518 47.79882812 4.83984375 C54.06181791 5.7790949 59.60944928 7.16136079 65.4375 9.625 C66.99933419 10.26464896 68.56184793 10.90264091 70.125 11.5390625 C70.89328125 11.85391602 71.6615625 12.16876953 72.453125 12.49316406 C74.4950735 13.29905545 76.5407047 14.02358605 78.625 14.7109375 C94.94927721 20.16141256 110.25743383 29.67986452 123.6875 40.375 C124.56921875 41.06722656 125.4509375 41.75945312 126.359375 42.47265625 C133.42612438 48.13204452 140.09290911 54.18008128 146.6875 60.375 C147.32300781 60.95636719 147.95851563 61.53773438 148.61328125 62.13671875 C174.80397246 86.9522424 190.6787658 122.41663463 199.5 156.75 C199.79221436 157.86991333 199.79221436 157.86991333 200.09033203 159.01245117 C203.13781021 171.44535666 204.02084968 183.84008026 203.94824219 196.58129883 C203.93752295 198.80773228 203.94821376 201.03335633 203.9609375 203.25976562 C203.97604884 217.23929169 202.28601702 230.75120232 199.375 244.4375 C199.1577124 245.46480225 198.9404248 246.49210449 198.71655273 247.55053711 C196.93083846 255.73650874 194.66503032 263.533276 191.6875 271.375 C191.24792969 272.57769531 190.80835938 273.78039062 190.35546875 275.01953125 C180.48841651 300.97830504 164.64305649 323.27227726 145.6875 343.375 C144.95789063 344.15875 144.22828125 344.9425 143.4765625 345.75 C127.86980543 361.9949516 104.67878958 379.48447601 82.6875 385.375 C82.6875 384.055 82.6875 382.735 82.6875 381.375 C84.59375 379.48046875 84.59375 379.48046875 87.1875 377.5625 C91.33029633 374.43042845 95.20423091 371.17146044 98.99609375 367.625 C100.6875 366.375 100.6875 366.375 103.6875 366.375 C110.65137098 360.4025954 117.26550927 353.40820472 121.57421875 345.26953125 C122.6875 343.375 122.6875 343.375 124.26953125 341.38671875 C127.96151107 336.6571802 128.96809638 333.86148056 128.5625 327.8125 C128.26522013 321.98176072 128.26522013 321.98176072 130.234375 319.15234375 C131.63507381 317.8701251 133.06472922 316.61892628 134.51953125 315.3984375 C140.60233484 309.72115415 144.88125272 299.67319643 146.125 291.5 C145.46032324 286.75230886 143.62709824 282.73626036 141.6875 278.375 C141.13784922 277.07168695 140.58838154 275.76829666 140.0390625 274.46484375 C139.44447536 273.1007909 138.84812198 271.73750657 138.25 270.375 C137.97406006 269.7157251 137.69812012 269.0564502 137.41381836 268.37719727 C135.67601904 264.45700613 135.67601904 264.45700613 132.1015625 262.34375 C129.6875 261.375 129.6875 261.375 128.39453125 258.40625 C128.09933594 257.2409375 127.80414063 256.075625 127.5 254.875 C126.44210859 250.14805972 126.44210859 250.14805972 123.6875 246.375 C119.39427141 245.88897412 117.36667361 245.91258392 113.75 248.375 C113.069375 249.035 112.38875 249.695 111.6875 250.375 C109.3775 248.395 107.0675 246.415 104.6875 244.375 C109.19829065 240.67889588 113.91667878 237.33837077 118.69140625 233.99804688 C121.09759075 232.29819396 123.40731279 230.65579367 125.4921875 228.56640625 C126.6875 227.375 126.6875 227.375 128.6875 227.375 C128.6875 226.715 128.6875 226.055 128.6875 225.375 C129.40292969 224.80523437 130.11835938 224.23546875 130.85546875 223.6484375 C148.40930883 209.55694105 159.53547724 183.43330334 162.48901367 161.61572266 C162.96912813 156.19568516 162.91527367 150.74961647 162.9375 145.3125 C162.958125 144.07822266 162.97875 142.84394531 163 141.57226562 C163.05082412 129.43165404 160.76952364 118.15741129 156.5 106.8125 C156.05370239 105.61343018 156.05370239 105.61343018 155.59838867 104.39013672 C152.37437997 96.06402355 148.12990995 88.56837199 142.44921875 81.6484375 C140.6875 79.375 140.6875 79.375 140.6875 77.375 C140.0275 77.375 139.3675 77.375 138.6875 77.375 C137.1796875 75.9140625 137.1796875 75.9140625 135.5625 74 C134.75425781 73.06027344 134.75425781 73.06027344 133.9296875 72.1015625 C132.6875 70.375 132.6875 70.375 132.6875 68.375 C131.6975 68.045 130.7075 67.715 129.6875 67.375 C129.6875 66.715 129.6875 66.055 129.6875 65.375 C129.09525635 65.09881836 128.5030127 64.82263672 127.89282227 64.53808594 C125.80621762 63.43761162 124.19809514 62.28276708 122.40234375 60.765625 C121.79398682 60.26063477 121.18562988 59.75564453 120.55883789 59.23535156 C119.92067139 58.70393555 119.28250488 58.17251953 118.625 57.625 C112.62193216 52.70731975 106.72410016 48.71043625 99.6875 45.375 C99.6875 44.715 99.6875 44.055 99.6875 43.375 C99.12933594 43.25640625 98.57117188 43.1378125 97.99609375 43.015625 C95.41021853 42.29805556 93.16271665 41.2997588 90.75 40.125 C89.91597656 39.72796875 89.08195312 39.3309375 88.22265625 38.921875 C85.23977742 37.10181334 83.1553902 34.8428902 80.6875 32.375 C78.56303207 30.91574294 76.39369434 29.51997952 74.1875 28.1875 C73.0840625 27.51332031 71.980625 26.83914062 70.84375 26.14453125 C66.29077438 23.59193477 62.9440539 22.07462549 57.6875 22.375 C57.3575 23.365 57.0275 24.355 56.6875 25.375 C55.12425768 25.25965396 53.56190317 25.13224874 52 25 C51.12988281 24.93039063 50.25976562 24.86078125 49.36328125 24.7890625 C46.53977708 24.35214069 44.33003127 23.44469032 41.6875 22.375 C24.09113454 18.14510446 6.15486822 17.1964193 -11.875 17.125 C-12.55336914 17.11973297 -13.23173828 17.11446594 -13.93066406 17.10903931 C-22.60441652 17.05687802 -30.81461139 17.6242576 -39.3125 19.375 C-40.31104004 19.57673828 -41.30958008 19.77847656 -42.33837891 19.98632812 C-63.43955441 24.44938371 -81.42601472 36.84947965 -96.0859375 52.2734375 C-99.17043198 55.18476738 -101.0537163 56.375 -105.3125 56.375 C-105.6425 57.365 -105.9725 58.355 -106.3125 59.375 C-108.203125 60.11328125 -108.203125 60.11328125 -110.5625 60.6875 C-115.61109181 62.24958423 -117.62704524 63.78373863 -120.3125 68.375 C-120.51072429 70.44659821 -120.51072429 70.44659821 -120.375 72.5625 C-120.354375 73.820625 -120.33375 75.07875 -120.3125 76.375 C-122.1875 77.9375 -122.1875 77.9375 -124.3125 79.375 C-124.5909375 81.1075 -124.5909375 81.1075 -124.875 82.875 C-126.3125 86.375 -126.3125 86.375 -128.66796875 87.390625 C-131.5378138 88.11873683 -134.41936646 88.74712847 -137.3125 89.375 C-143.07069077 91.65654729 -147.83034492 94.97770071 -150.35546875 100.765625 C-151.08898591 102.95584525 -151.74539714 105.13643607 -152.3125 107.375 C-152.9725 107.375 -153.6325 107.375 -154.3125 107.375 C-154.37566406 108.28121094 -154.43882812 109.18742187 -154.50390625 110.12109375 C-155.40122636 119.04706752 -157.32876658 123.8290366 -163.3125 130.375 C-164.1084557 131.54580946 -164.88347893 132.73147894 -165.625 133.9375 C-166.4603125 135.1440625 -166.4603125 135.1440625 -167.3125 136.375 C-167.9725 136.375 -168.6325 136.375 -169.3125 136.375 C-169.415625 137.035 -169.51875 137.695 -169.625 138.375 C-170.3125 141.375 -170.3125 141.375 -171.8371582 144.92578125 C-173.69400241 149.82840288 -173.69484884 154.37142035 -173.60546875 159.5625 C-173.59910149 160.97716553 -173.59910149 160.97716553 -173.59260559 162.42041016 C-173.5759357 165.40557518 -173.53830575 168.39004218 -173.5 171.375 C-173.48493804 173.41014644 -173.47125229 175.44530355 -173.45898438 177.48046875 C-173.42607055 182.4455777 -173.37436999 187.41017087 -173.3125 192.375 C-172.6525 192.375 -171.9925 192.375 -171.3125 192.375 C-171.3125 193.365 -171.3125 194.355 -171.3125 195.375 C-170.6525 195.375 -169.9925 195.375 -169.3125 195.375 C-169.32035522 194.27381836 -169.32035522 194.27381836 -169.32836914 193.15039062 C-169.41264868 179.52057585 -169.47783674 165.96365879 -168.3125 152.375 C-167.6525 152.375 -166.9925 152.375 -166.3125 152.375 C-166.20421875 151.64796875 -166.0959375 150.9209375 -165.984375 150.171875 C-165.26501504 147.17733004 -164.23733567 145.19768573 -162.5625 142.625 C-162.07265625 141.84640625 -161.5828125 141.0678125 -161.078125 140.265625 C-158.90898575 137.94291837 -157.42022002 137.69211429 -154.3125 137.375 C-154.8075 133.91 -154.8075 133.91 -155.3125 130.375 C-154.6525 130.375 -153.9925 130.375 -153.3125 130.375 C-152.9825 129.715 -152.6525 129.055 -152.3125 128.375 C-151.6525 130.025 -150.9925 131.675 -150.3125 133.375 C-145.1766579 131.49844231 -142.46807744 130.04525461 -139.3125 125.375 C-139.82787952 132.50893752 -140.75255901 139.39312817 -142.3125 146.375 C-142.9725 146.375 -143.6325 146.375 -144.3125 146.375 C-143.920625 147.57125 -143.52875 148.7675 -143.125 150 C-142.26980613 153.38489322 -142.24735274 154.20561713 -143.5625 157.625 C-144.42875 158.98625 -144.42875 158.98625 -145.3125 160.375 C-147.45574314 164.18521003 -148.96636891 167.88624313 -147.80859375 172.29296875 C-147.04576394 174.35780127 -146.20898906 176.3646912 -145.3125 178.375 C-142.3125 185.12836323 -142.3125 185.12836323 -142.3125 188.375 C-141.6525 188.375 -140.9925 188.375 -140.3125 188.375 C-140.6425 181.775 -140.9725 175.175 -141.3125 168.375 C-140.6525 168.045 -139.9925 167.715 -139.3125 167.375 C-139.22613281 168.07882812 -139.13976562 168.78265625 -139.05078125 169.5078125 C-137.38295348 181.22851039 -133.61188335 191.75415622 -127.64453125 201.97265625 C-125.61794821 205.62763738 -124.2182186 209.29926632 -123.3125 213.375 C-122.6525 213.375 -121.9925 213.375 -121.3125 213.375 C-119.5859375 215.2734375 -119.5859375 215.2734375 -117.6875 217.75 C-116.74003906 218.96816406 -116.74003906 218.96816406 -115.7734375 220.2109375 C-114.3125 222.375 -114.3125 222.375 -114.3125 224.375 C-113.6525 224.375 -112.9925 224.375 -112.3125 224.375 C-110.83203125 225.87890625 -110.83203125 225.87890625 -109.125 227.9375 C-101.30291453 237.09821041 -92.89508788 244.54377811 -82.3125 250.375 C-81.6525 251.035 -80.9925 251.695 -80.3125 252.375 C-78.62551018 253.13276264 -76.91359367 253.83611782 -75.1875 254.5 C-74.27742188 254.85320312 -73.36734375 255.20640625 -72.4296875 255.5703125 C-71.73101562 255.83585938 -71.03234375 256.10140625 -70.3125 256.375 C-70.3125 257.035 -70.3125 257.695 -70.3125 258.375 C-69.58651611 258.50712891 -68.86053223 258.63925781 -68.11254883 258.77539062 C-65.47857024 259.33943731 -63.05098714 260.07772498 -60.51171875 260.96875 C-59.61646484 261.27683594 -58.72121094 261.58492188 -57.79882812 261.90234375 C-55.94339511 262.5471488 -54.08920687 263.19554769 -52.23632812 263.84765625 C-46.86252872 265.68900114 -41.96160269 266.82189754 -36.3125 267.375 C-34.29521862 267.98738899 -32.28645523 268.63476679 -30.3125 269.375 C-30.64769474 274.73811579 -33.85384253 278.50324761 -37.3125 282.375 C-38.02277344 282.90480469 -38.73304688 283.43460937 -39.46484375 283.98046875 C-41.49500223 285.24223095 -41.49500223 285.24223095 -42.0625 287.5625 C-42.145 288.160625 -42.2275 288.75875 -42.3125 289.375 C-44.9525 289.705 -47.5925 290.035 -50.3125 290.375 C-50.6425 292.025 -50.9725 293.675 -51.3125 295.375 C-51.9725 295.375 -52.6325 295.375 -53.3125 295.375 C-53.45945312 296.22771484 -53.45945312 296.22771484 -53.609375 297.09765625 C-54.67573919 302.60414031 -56.29534249 306.6481199 -59.3125 311.375 C-61.0625 311.25 -61.0625 311.25 -63.3125 310.375 C-63.93125 309.364375 -64.55 308.35375 -65.1875 307.3125 C-67.02029691 304.08443035 -67.02029691 304.08443035 -70.3125 303.75 C-73.883513 304.49396104 -75.07110692 305.55250502 -77.3125 308.375 C-77.6425 309.035 -77.9725 309.695 -78.3125 310.375 C-82.27806293 309.8125088 -84.76695194 308.6151111 -88.0625 306.375 C-93.86055982 302.75229596 -98.64294577 302.375 -105.3125 302.375 C-105.3125 303.035 -105.3125 303.695 -105.3125 304.375 C-103.9821875 304.2821875 -103.9821875 304.2821875 -102.625 304.1875 C-98.87386537 304.39982838 -97.28163345 305.1280882 -94.3125 307.375 C-91.3125 310.7887931 -91.3125 310.7887931 -91.3125 313.375 C-90.735 313.66375 -90.1575 313.9525 -89.5625 314.25 C-87.3125 315.375 -87.3125 315.375 -85.4375 316.5 C-82.53909892 317.69345927 -80.42447952 317.69254893 -77.3125 317.375 C-74.60123616 315.94878316 -74.60123616 315.94878316 -72.3125 314.375 C-71.6525 314.375 -70.9925 314.375 -70.3125 314.375 C-69.9825 315.695 -69.6525 317.015 -69.3125 318.375 C-66.00179162 319.37609515 -63.01165231 319.47856134 -59.5625 319.4375 C-58.08523437 319.42396484 -58.08523437 319.42396484 -56.578125 319.41015625 C-55.83046875 319.39855469 -55.0828125 319.38695312 -54.3125 319.375 C-54.00699219 318.7459375 -53.70148438 318.116875 -53.38671875 317.46875 C-51.517035 313.8245664 -49.58256027 312.52003236 -45.9375 310.5625 C-42.1595012 308.49529311 -40.02633901 305.71510955 -37.3125 302.375 C-31.94407895 298.375 -31.94407895 298.375 -29.3125 298.375 C-27.28808288 295.1359326 -27.04482732 292.13762058 -26.65625 288.390625 C-26.14610842 285.39934027 -24.75213918 283.02393609 -23.3125 280.375 C-23.044375 279.3025 -22.77625 278.23 -22.5 277.125 C-21.3125 274.375 -21.3125 274.375 -18.625 273 C-15.10771633 272.33636157 -11.88382734 272.23214691 -8.3125 272.375 C-6.0515342 276.89693161 -5.91237012 280.41338948 -6.3125 285.375 C-7.75 287.125 -7.75 287.125 -9.3125 288.375 C-10.02697643 290.47832891 -10.02697643 290.47832891 -10.3125 292.375 C-11.09625 292.4575 -11.88 292.54 -12.6875 292.625 C-13.986875 292.99625 -13.986875 292.99625 -15.3125 293.375 C-16.01644612 294.68903276 -16.67595658 296.0270257 -17.3125 297.375 C-18.3025 298.15875 -19.2925 298.9425 -20.3125 299.75 C-23.6063248 302.6320967 -24.15259178 304.27070937 -25.3125 308.375 C-26.8125 310.25 -26.8125 310.25 -28.3125 311.375 C-28.9725 311.375 -29.6325 311.375 -30.3125 311.375 C-30.3125 312.035 -30.3125 312.695 -30.3125 313.375 C-30.89 313.6225 -31.4675 313.87 -32.0625 314.125 C-34.3807926 315.25262403 -34.3807926 315.25262403 -35.9375 317.1875 C-38.99308933 320.0018586 -42.32459615 321.48152551 -46.0703125 323.2265625 C-48.43518119 324.29301267 -48.43518119 324.29301267 -50.3125 326.375 C-52.9140625 326.5703125 -52.9140625 326.5703125 -55.9375 326.5 C-56.94039062 326.48195313 -57.94328125 326.46390625 -58.9765625 326.4453125 C-60.13285156 326.41050781 -60.13285156 326.41050781 -61.3125 326.375 C-61.6425 327.035 -61.9725 327.695 -62.3125 328.375 C-62.9725 328.375 -63.6325 328.375 -64.3125 328.375 C-64.333125 329.674375 -64.35375 330.97375 -64.375 332.3125 C-64.39240234 333.40884766 -64.39240234 333.40884766 -64.41015625 334.52734375 C-64.51811184 336.39232141 -64.51811184 336.39232141 -63.3125 337.375 C-61.79780552 337.60692865 -60.27495438 337.78715238 -58.75 337.9375 C-57.92371094 338.02128906 -57.09742188 338.10507812 -56.24609375 338.19140625 C-55.60800781 338.25199219 -54.96992188 338.31257813 -54.3125 338.375 C-53.9825 340.025 -53.6525 341.675 -53.3125 343.375 C-54.9379308 343.23404936 -56.56284051 343.08707913 -58.1875 342.9375 C-59.09242188 342.85628906 -59.99734375 342.77507812 -60.9296875 342.69140625 C-63.3125 342.375 -63.3125 342.375 -65.3125 341.375 C-65.3125 340.715 -65.3125 340.055 -65.3125 339.375 C-65.93125 339.08625 -66.55 338.7975 -67.1875 338.5 C-69.3125 337.375 -69.3125 337.375 -71.3125 335.375 C-74.66994112 335.13122117 -74.66994112 335.13122117 -78.4375 335.25 C-79.71882813 335.26804687 -81.00015625 335.28609375 -82.3203125 335.3046875 C-83.30773437 335.32789063 -84.29515625 335.35109375 -85.3125 335.375 C-85.3125 336.035 -85.3125 336.695 -85.3125 337.375 C-90.0625 336.5 -90.0625 336.5 -92.3125 335.375 C-94.47549201 335.22382314 -96.64441578 335.15327936 -98.8125 335.125 C-99.9778125 335.09921875 -101.143125 335.0734375 -102.34375 335.046875 C-105.65386747 335.32054613 -107.80311287 335.79465187 -110.87109375 336.83984375 C-117.47128557 338.94452557 -123.99125076 339.07823414 -130.875 339.1875 C-132.13763672 339.25775391 -133.40027344 339.32800781 -134.70117188 339.40039062 C-139.86194815 339.47854337 -143.72676446 339.53466952 -147.98754883 336.41870117 C-150.34837534 333.85887969 -152.34286912 331.24484625 -154.3125 328.375 C-154.89862061 327.58504639 -155.48474121 326.79509277 -156.08862305 325.98120117 C-157.74533244 323.71096767 -159.31923357 321.4028629 -160.875 319.0625 C-161.4316333 318.23274658 -161.9882666 317.40299316 -162.56176758 316.5480957 C-163.66143293 314.90107404 -164.75659236 313.25103276 -165.84667969 311.59765625 C-166.72884503 310.26000914 -167.61597513 308.92559013 -168.51269531 307.59765625 C-195.36634485 267.82549203 -205.00579686 212.68872825 -196.14428711 165.6809082 C-195.57135095 162.90230009 -194.95259194 160.13885378 -194.3125 157.375 C-194.10882813 156.46041016 -193.90515625 155.54582031 -193.6953125 154.60351562 C-185.58299837 119.02450828 -166.79346627 87.03541205 -141.69384766 60.81933594 C-140.46741961 59.53698382 -139.25420513 58.24202339 -138.04296875 56.9453125 C-118.36703369 36.42977353 -91.28487934 19.98399231 -64.3125 11.375 C-62.99626656 10.86367511 -61.68316906 10.34411764 -60.375 9.8125 C-54.20029567 7.47037077 -47.70615434 5.99426246 -41.3125 4.375 C-40.5184375 4.16746094 -39.724375 3.95992188 -38.90625 3.74609375 C-26.18100321 0.63819694 -13.04340926 -0.03048141 0 0 Z " fill="#8D6144" transform="translate(310.3125,111.625)"/>
<path d="M0 0 C1.04347595 -0.00200912 1.04347595 -0.00200912 2.10803223 -0.00405884 C12.09291008 0.00007232 21.94174802 0.45708643 31.875 1.5625 C32.93702637 1.68012695 33.99905273 1.79775391 35.09326172 1.91894531 C42.27300645 2.80943863 49.13859866 4.39854048 56.125 6.25 C58.53748877 6.83295453 60.95520453 7.38515538 63.375 7.9375 C64.47328125 8.18886719 65.5715625 8.44023437 66.703125 8.69921875 C67.50234375 8.88097656 68.3015625 9.06273437 69.125 9.25 C69.455 7.93 69.785 6.61 70.125 5.25 C75.99500831 5.68863798 80.18936939 6.90676062 85.25 10 C86.12205078 10.50273437 86.12205078 10.50273437 87.01171875 11.015625 C91.06211919 13.40780781 94.65677212 16.06639872 98.125 19.25 C98.125 19.91 98.125 20.57 98.125 21.25 C98.95 21.4975 99.775 21.745 100.625 22 C104.64873471 23.43704811 108.34479024 25.27354515 112.125 27.25 C112.125 27.91 112.125 28.57 112.125 29.25 C112.68316406 29.35570312 113.24132812 29.46140625 113.81640625 29.5703125 C122.74149074 32.19800235 130.28294435 39.69143717 137.1796875 45.69921875 C139.01887609 47.29204388 140.88869953 48.85092561 142.80078125 50.35546875 C144.91740636 52.08078501 146.6701151 53.80163373 148.4375 55.875 C148.94925781 56.46539062 149.46101562 57.05578125 149.98828125 57.6640625 C151.125 59.25 151.125 59.25 151.125 61.25 C151.785 61.25 152.445 61.25 153.125 61.25 C155.74398843 64.37343739 157.89133149 67.84501751 160.125 71.25 C160.69734375 72.07242188 161.2696875 72.89484375 161.859375 73.7421875 C176.26313429 96.00854933 179.7353266 125.76210719 175 151.5 C174.43487538 153.76578003 173.80777786 156.01685437 173.125 158.25 C172.81900879 159.26078613 172.81900879 159.26078613 172.50683594 160.29199219 C166.80339601 178.73062405 157.24623764 195.83990382 143.125 209.25 C142.465 209.25 141.805 209.25 141.125 209.25 C141.125 209.91 141.125 210.57 141.125 211.25 C138.03817457 214.21591292 134.54546053 216.6846546 131.125 219.25 C130.60035156 219.67958008 130.07570313 220.10916016 129.53515625 220.55175781 C119.50611736 228.74694967 119.50611736 228.74694967 112.671875 228.1484375 C108.71168899 227.51641919 104.93743837 226.48285345 101.125 225.25 C100.795 225.91 100.465 226.57 100.125 227.25 C97.69425727 224.81925727 98.1325685 219.0587016 97.72265625 215.765625 C97.18830951 212.62240889 96.34405147 210.16756252 95.125 207.25 C95.125 206.26 95.125 205.27 95.125 204.25 C94.465 204.25 93.805 204.25 93.125 204.25 C90.57985753 199.76381503 91.08998605 196.16631624 92.125 191.25 C93.13361506 187.5973726 94.23219431 183.97230196 95.39672852 180.36645508 C97.4337487 173.89299355 97.74064204 169.62092947 95.15625 163.21484375 C92.66098687 156.7295758 92.60144377 150.69484597 92.625 143.8125 C92.63265585 141.52212452 92.62299227 139.23160784 92.59375 136.94140625 C92.59826172 135.94310791 92.60277344 134.94480957 92.60742188 133.91625977 C92.00024449 130.56049853 90.61327387 129.48395946 88.125 127.25 C88.125 126.59 88.125 125.93 88.125 125.25 C87.526875 125.023125 86.92875 124.79625 86.3125 124.5625 C83.52387363 122.88932418 82.67466414 121.07982147 81.125 118.25 C80.61710938 117.63769531 80.10921875 117.02539062 79.5859375 116.39453125 C77.89188383 113.9078054 77.64745534 112.28243738 77.3125 109.3125 C76.59429396 104.65035219 75.20040468 101.07445563 73.0625 96.875 C69.83949201 90.34272347 69.1486479 84.47443462 69.125 77.25 C69.723125 77.559375 70.32125 77.86875 70.9375 78.1875 C73.21456772 79.35209704 73.21456772 79.35209704 76.125 80.25 C76.125 80.91 76.125 81.57 76.125 82.25 C77.89413824 82.47226864 79.66544371 82.67733873 81.4375 82.875 C82.42363281 82.99101562 83.40976562 83.10703125 84.42578125 83.2265625 C87.35157416 83.50476995 87.35157416 83.50476995 90.125 81.25 C90.48862818 79.04274927 90.48862818 79.04274927 90.3125 76.625 C90.28542969 75.80773437 90.25835937 74.99046875 90.23046875 74.1484375 C90.19566406 73.52195312 90.16085937 72.89546875 90.125 72.25 C90.785 72.25 91.445 72.25 92.125 72.25 C91.33792098 70.14411299 90.54517374 68.04034384 89.75 65.9375 C89.08871094 64.17986328 89.08871094 64.17986328 88.4140625 62.38671875 C87.21010352 59.16446407 87.21010352 59.16446407 85.125 56.25 C83.14008358 56.51676204 83.14008358 56.51676204 81.125 57.25 C80.02993508 60.53519475 80.02539392 62.98663415 80.0625 66.4375 C80.07152344 67.52417969 80.08054687 68.61085938 80.08984375 69.73046875 C80.10144531 70.56191406 80.11304688 71.39335937 80.125 72.25 C79.465 72.25 78.805 72.25 78.125 72.25 C78.125 71.59 78.125 70.93 78.125 70.25 C77.18527344 70.08177734 77.18527344 70.08177734 76.2265625 69.91015625 C73.59283343 69.27457179 71.47180076 68.61501989 69.125 67.25 C67.68289092 64.34840703 67.47504839 61.44286565 67.125 58.25 C66.80133364 56.95035509 66.44985898 55.65710367 66.0625 54.375 C65.753125 53.34375 65.44375 52.3125 65.125 51.25 C64.795 50.26 64.465 49.27 64.125 48.25 C63.53332031 48.4665625 62.94164062 48.683125 62.33203125 48.90625 C54.48352373 51.67179262 54.48352373 51.67179262 50.125 51.25 C51.4339572 54.37197478 51.4339572 54.37197478 54.125 56.25 C54.125 56.91 54.125 57.57 54.125 58.25 C55.053125 58.62125 55.053125 58.62125 56 59 C58.56398664 60.50822744 59.23757047 61.42636058 60.125 64.25 C59.8125 66.4375 59.8125 66.4375 59.125 69.25 C58.32910968 74.33950914 58.09805422 79.28797845 58.1875 84.4375 C58.2374506 88.78320217 57.9184581 92.21471928 56.125 96.25 C55.795 96.25 55.465 96.25 55.125 96.25 C55.01542969 94.94546875 54.90585937 93.6409375 54.79296875 92.296875 C53.58595543 78.67002085 52.07343189 67.21993259 45.125 55.25 C44.52026855 55.2907666 43.91553711 55.3315332 43.29248047 55.37353516 C40.52895778 55.55290222 37.76465652 55.71409407 35 55.875 C34.04867187 55.93945312 33.09734375 56.00390625 32.1171875 56.0703125 C26.93875264 56.35800333 22.99120211 56.30906269 18.125 54.25 C16.81737173 53.89804024 15.50522933 53.56202048 14.1875 53.25 C10.46818034 52.34704378 6.79915736 51.32162923 3.125 50.25 C3.5890625 49.1053125 3.5890625 49.1053125 4.0625 47.9375 C4.80393593 46.06210323 5.48728217 44.16315348 6.125 42.25 C6.785 42.25 7.445 42.25 8.125 42.25 C7.63 38.785 7.63 38.785 7.125 35.25 C5.475 34.92 3.825 34.59 2.125 34.25 C2.125 33.26 2.125 32.27 2.125 31.25 C3.445 31.25 4.765 31.25 6.125 31.25 C1.64607192 26.23266448 1.64607192 26.23266448 -4.3984375 23.984375 C-5.80996094 23.99210937 -5.80996094 23.99210937 -7.25 24 C-8.18585938 23.99484375 -9.12171875 23.9896875 -10.0859375 23.984375 C-15.59161935 24.50872565 -19.52797556 27.21095242 -24.0078125 30.2265625 C-25.875 31.25 -25.875 31.25 -28.875 31.25 C-29.31714844 30.43789062 -29.75929688 29.62578125 -30.21484375 28.7890625 C-31.62730088 26.00686427 -31.62730088 26.00686427 -34.44140625 25.5859375 C-44.52558174 25.71741306 -51.20962616 28.78234082 -58.875 35.25 C-59.535 35.25 -60.195 35.25 -60.875 35.25 C-61.205 36.24 -61.535 37.23 -61.875 38.25 C-63.19564453 38.28867188 -63.19564453 38.28867188 -64.54296875 38.328125 C-66.28513672 38.41320312 -66.28513672 38.41320312 -68.0625 38.5 C-69.21105469 38.54640625 -70.35960937 38.5928125 -71.54296875 38.640625 C-75.37541642 39.34151813 -77.0046525 40.70084592 -79.875 43.25 C-80.535 43.25 -81.195 43.25 -81.875 43.25 C-82.10445312 43.81460938 -82.33390625 44.37921875 -82.5703125 44.9609375 C-84.22179367 47.85844637 -86.25824604 49.66421533 -88.75 51.875 C-90.04550781 53.03902344 -90.04550781 53.03902344 -91.3671875 54.2265625 C-93.50654679 55.95271221 -95.36839953 57.16574957 -97.875 58.25 C-94.53091918 51.00449157 -90.03462679 46.15828404 -83.875 41.25 C-82.84826172 40.41662109 -82.84826172 40.41662109 -81.80078125 39.56640625 C-75.56212743 34.85203085 -68.745441 31.64815056 -61.65112305 28.44580078 C-53.61614608 25.20782365 -53.61614608 25.20782365 -47.875 19.25 C-53.815 19.58 -59.755 19.91 -65.875 20.25 C-62.36402416 16.73902416 -59.30070662 14.5628312 -55 12.3125 C-54.34306152 11.96622559 -53.68612305 11.61995117 -53.00927734 11.26318359 C-35.91883835 2.48281209 -19.01509123 0.02167844 0 0 Z " fill="#A97E68" transform="translate(297.875,127.75)"/>
<path d="M0 0 C22.13705705 8.15799415 41.08441073 25.10959795 58 41 C58.63550781 41.58136719 59.27101563 42.16273438 59.92578125 42.76171875 C86.11647246 67.5772424 101.9912658 103.04163463 110.8125 137.375 C111.00730957 138.12160889 111.20211914 138.86821777 111.40283203 139.63745117 C114.45031021 152.07035666 115.33334968 164.46508026 115.26074219 177.20629883 C115.25002295 179.43273228 115.26071376 181.65835633 115.2734375 183.88476562 C115.28854884 197.86429169 113.59851702 211.37620232 110.6875 225.0625 C110.4702124 226.08980225 110.2529248 227.11710449 110.02905273 228.17553711 C108.24333846 236.36150874 105.97753032 244.158276 103 252 C102.56042969 253.20269531 102.12085938 254.40539062 101.66796875 255.64453125 C91.80091651 281.60330504 75.95555649 303.89727726 57 324 C56.27039063 324.78375 55.54078125 325.5675 54.7890625 326.375 C39.18230543 342.6199516 15.99128958 360.10947601 -6 366 C-6 364.68 -6 363.36 -6 362 C-4.09375 360.10546875 -4.09375 360.10546875 -1.5 358.1875 C2.64279633 355.05542845 6.51673091 351.79646044 10.30859375 348.25 C12 347 12 347 15 347 C21.96387098 341.0275954 28.57800927 334.03320472 32.88671875 325.89453125 C34 324 34 324 35.58203125 322.01171875 C39.27401107 317.2821802 40.28059638 314.48648056 39.875 308.4375 C39.57772013 302.60676072 39.57772013 302.60676072 41.546875 299.77734375 C42.94757381 298.4951251 44.37722922 297.24392628 45.83203125 296.0234375 C51.91483484 290.34615415 56.19375272 280.29819643 57.4375 272.125 C56.77282324 267.37730886 54.93959824 263.36126036 53 259 C52.45034922 257.69668695 51.90088154 256.39329666 51.3515625 255.08984375 C50.75697536 253.7257909 50.16062198 252.36250657 49.5625 251 C49.14859009 250.01108765 49.14859009 250.01108765 48.72631836 249.00219727 C46.98851904 245.08200613 46.98851904 245.08200613 43.4140625 242.96875 C41 242 41 242 39.70703125 239.03125 C39.26423828 237.28328125 39.26423828 237.28328125 38.8125 235.5 C37.75460859 230.77305972 37.75460859 230.77305972 35 227 C30.70677141 226.51397412 28.67917361 226.53758392 25.0625 229 C24.0415625 229.99 24.0415625 229.99 23 231 C20.69 229.02 18.38 227.04 16 225 C20.51079065 221.30389588 25.22917878 217.96337077 30.00390625 214.62304688 C32.41009075 212.92319396 34.71981279 211.28079367 36.8046875 209.19140625 C38 208 38 208 40 208 C40 207.34 40 206.68 40 206 C40.71542969 205.43023437 41.43085938 204.86046875 42.16796875 204.2734375 C59.72180883 190.18194105 70.84797724 164.05830334 73.80151367 142.24072266 C74.28162813 136.82068516 74.22777367 131.37461647 74.25 125.9375 C74.270625 124.70322266 74.29125 123.46894531 74.3125 122.19726562 C74.36332412 110.05665404 72.08202364 98.78241129 67.8125 87.4375 C67.36620239 86.23843018 67.36620239 86.23843018 66.91088867 85.01513672 C63.68687997 76.68902355 59.44240995 69.19337199 53.76171875 62.2734375 C52 60 52 60 52 58 C51.34 58 50.68 58 50 58 C48.4921875 56.5390625 48.4921875 56.5390625 46.875 54.625 C46.33617187 53.99851563 45.79734375 53.37203125 45.2421875 52.7265625 C44 51 44 51 44 49 C43.01 48.67 42.02 48.34 41 48 C41 47.34 41 46.68 41 46 C40.41283203 45.72671875 39.82566406 45.4534375 39.22070312 45.171875 C37.06076131 44.03206401 35.34947431 42.79956687 33.46875 41.25 C32.82292969 40.7240625 32.17710937 40.198125 31.51171875 39.65625 C30.17057292 38.55208333 28.82942708 37.44791667 27.48828125 36.34375 C26.84246094 35.8178125 26.19664062 35.291875 25.53125 34.75 C24.65823242 34.03070313 24.65823242 34.03070313 23.76757812 33.296875 C22.00951352 31.91744733 22.00951352 31.91744733 19.82617188 30.9921875 C19.22353516 30.66476563 18.62089844 30.33734375 18 30 C17.25 27.375 17.25 27.375 17 25 C16.40445312 24.94199219 15.80890625 24.88398438 15.1953125 24.82421875 C12.01312875 23.62948428 11.40965264 21.78940474 9.875 18.8125 C9.36453125 17.8225 8.8540625 16.8325 8.328125 15.8125 C6.96615464 12.92832747 5.8329006 10.08173224 5 7 C4.34 7 3.68 7 3 7 C2.01 4.69 1.02 2.38 0 0 Z " fill="#8F6A50" transform="translate(399,131)"/>
<path d="M0 0 C0.66 0.33 1.32 0.66 2 1 C1.66146305 11.15610843 -2.88184502 19.96992158 -9 28 C-9.52078125 28.40605469 -10.0415625 28.81210937 -10.578125 29.23046875 C-12.47366659 30.74070165 -13.74850029 31.90995335 -15 34 C-15.11575102 36.88820956 -15.11575102 36.88820956 -14.8125 40.0625 C-14.32749507 48.88352721 -18.76284088 53.34274765 -24 60 C-24.48082031 60.82371094 -24.96164062 61.64742188 -25.45703125 62.49609375 C-27.41935474 65.6805225 -29.83775928 68.33668057 -32.375 71.0625 C-32.84421875 71.57876953 -33.3134375 72.09503906 -33.796875 72.62695312 C-36.65753852 75.7286394 -39.56679437 78.54012586 -43 81 C-43.66 81 -44.32 81 -45 81 C-46.71796158 82.32226432 -46.71796158 82.32226432 -48.5625 84.0625 C-52.29291579 87.44383101 -56.20468831 90.41683176 -60.3125 93.32421875 C-60.869375 93.87722656 -61.42625 94.43023437 -62 95 C-62 96.32 -62 97.64 -62 99 C-74.31071097 104.48439256 -86.89173042 107.96783027 -100 111 C-100.89122559 111.21462891 -101.78245117 111.42925781 -102.70068359 111.65039062 C-127.50180818 117.46639974 -156.29657285 117.33181561 -181.125 111.75 C-182.12708496 111.52602539 -183.12916992 111.30205078 -184.16162109 111.07128906 C-212.34727479 104.65174871 -238.94334178 93.64335586 -262 76 C-262.90363281 75.3090625 -263.80726563 74.618125 -264.73828125 73.90625 C-273.33394707 67.16874522 -281.39324063 59.83345088 -289 52 C-287 50 -287 50 -284.54492188 49.82055664 C-283.52978516 49.85012451 -282.51464844 49.87969238 -281.46875 49.91015625 C-279.78652344 49.94012695 -279.78652344 49.94012695 -278.0703125 49.97070312 C-275.72122844 50.0311008 -273.37225692 50.09607887 -271.0234375 50.16601562 C-264.53984529 50.2730909 -259.26469126 49.76646401 -253.12548828 47.67749023 C-248.8099414 46.30192826 -245.93642145 46.61722919 -241.7890625 48.3125 C-240.74492187 48.869375 -239.70078125 49.42625 -238.625 50 C-237.56539062 50.556875 -236.50578125 51.11375 -235.4140625 51.6875 C-234.61742187 52.120625 -233.82078125 52.55375 -233 53 C-233 53.66 -233 54.32 -233 55 C-231.35 55 -229.7 55 -228 55 C-228 55.66 -228 56.32 -228 57 C-227.3090625 57.10957031 -226.618125 57.21914063 -225.90625 57.33203125 C-222.56411345 58.1001836 -219.66155126 59.35503205 -216.5 60.6875 C-199.95257008 67.27775713 -180.30054126 71.05925878 -162.48828125 71.23828125 C-161.28513275 71.25290405 -161.28513275 71.25290405 -160.05767822 71.26782227 C-135.75960441 71.56832216 -135.75960441 71.56832216 -112 67 C-111.30551758 66.80744629 -110.61103516 66.61489258 -109.89550781 66.41650391 C-88.94080849 60.60223059 -69.63155223 51.08430919 -51 40 C-50.06800781 39.44828125 -49.13601563 38.8965625 -48.17578125 38.328125 C-42.71437421 34.97952506 -37.57176411 31.28002332 -32.5 27.375 C-31.89994141 26.91955811 -31.29988281 26.46411621 -30.68164062 25.99487305 C-27.27002895 23.31314009 -25.00860625 20.83940146 -23 17 C-21.4375 15.1875 -21.4375 15.1875 -20 14 C-19.34 14 -18.68 14 -18 14 C-15.78600697 10.20458337 -14.99019802 6.24370579 -14 2 C-13.34 2 -12.68 2 -12 2 C-10.84162374 6.05431692 -11.16308743 8.21812119 -13 12 C-12.566875 11.525625 -12.13375 11.05125 -11.6875 10.5625 C-10 9 -10 9 -7 8 C-5.11544482 6.14021584 -5.11544482 6.14021584 -3.3125 3.9375 C-2.68988281 3.20402344 -2.06726563 2.47054688 -1.42578125 1.71484375 C-0.95527344 1.14894531 -0.48476563 0.58304687 0 0 Z " fill="#B4845A" transform="translate(455,399)"/>
<path d="M0 0 C5.18328049 1.35526141 10.33720135 2.77750498 15.4453125 4.39453125 C27.51049328 8.19149668 39.51291024 10.98879166 52 13 C53.05936768 13.17789062 53.05936768 13.17789062 54.14013672 13.359375 C72.75832447 16.39539106 92.26858916 15.75705026 111 14 C111 13.01 111 12.02 111 11 C112.66611905 10.957279 114.33382885 10.95936168 116 11 C116.33 11.33 116.66 11.66 117 12 C118.77186927 11.75635612 120.53262895 11.43133376 122.28515625 11.07421875 C123.37376953 10.85443359 124.46238281 10.63464844 125.58398438 10.40820312 C126.73189453 10.17037109 127.87980469 9.93253906 129.0625 9.6875 C130.18333984 9.46126953 131.30417969 9.23503906 132.45898438 9.00195312 C138.34570399 7.80248647 144.18658 6.51561623 150 5 C150.6953125 7.2421875 150.6953125 7.2421875 151 10 C148.20995477 14.73094626 143.9304212 18.60522399 139 21 C138.34 21.33 137.68 21.66 137 22 C137.144375 21.484375 137.28875 20.96875 137.4375 20.4375 C138.15809901 17.31490429 138.57266439 14.17449308 139 11 C138.34 11 137.68 11 137 11 C136.8453125 12.85625 136.8453125 12.85625 136.6875 14.75 C136.25225608 18.25682248 135.62948243 20.47569687 133 23 C132.34 23 131.68 23 131 23 C130.67 23.99 130.34 24.98 130 26 C129.34 26 128.68 26 128 26 C127.68675781 27.07121094 127.68675781 27.07121094 127.3671875 28.1640625 C125.63238989 31.76252839 123.15824581 33.89425079 120.125 36.375 C119.54492188 36.85686768 118.96484375 37.33873535 118.3671875 37.83520508 C113.84472231 41.50417786 109.12263978 44.52060379 104.015625 47.328125 C100.84574667 49.08551869 97.80873244 50.99377347 94.75 52.9375 C85.19642669 58.84397089 75.11448458 64.04500247 64.59375 68.0078125 C62.59735095 68.77149527 60.62161592 69.58935581 58.65625 70.4296875 C50.01545051 74.10863808 41.39693219 76.70732692 32.18725586 78.55834961 C30.68331608 78.86202491 29.18409997 79.18977026 27.68969727 79.53735352 C18.66636817 81.46838922 9.62381393 81.43694993 0.4375 81.4375 C-0.85000153 81.44059677 -0.85000153 81.44059677 -2.16351318 81.4437561 C-16.41125677 81.43762754 -29.66718011 80.04687323 -43.54003906 76.60205078 C-46.67311079 75.83526288 -49.83533598 75.24621183 -53 74.625 C-61.28043829 72.66655609 -69.14508164 69.21778361 -77 66 C-77 65.34 -77 64.68 -77 64 C-78.65 64 -80.3 64 -82 64 C-82 63.34 -82 62.68 -82 62 C-82.680625 61.9175 -83.36125 61.835 -84.0625 61.75 C-87.8746907 60.77667472 -90.64070329 59.04192545 -94 57 C-94 56.67 -94 56.34 -94 56 C-88.01006953 55.6847405 -84.36439644 56.31780178 -79 59 C-79 58.34 -79 57.68 -79 57 C-74.80070461 54.90035231 -69.56035553 55.45370741 -65 56 C-62.2183531 57.37037017 -61.06248696 58.59376522 -59 61 C-59 61.66 -59 62.32 -59 63 C-58.30132812 63.06058594 -57.60265625 63.12117188 -56.8828125 63.18359375 C-55.97273438 63.26738281 -55.06265625 63.35117187 -54.125 63.4375 C-53.22007812 63.51871094 -52.31515625 63.59992188 -51.3828125 63.68359375 C-49 64 -49 64 -47 65 C-47.33 63.35 -47.66 61.7 -48 60 C-48.62648437 60.02320313 -49.25296875 60.04640625 -49.8984375 60.0703125 C-50.71570313 60.08835937 -51.53296875 60.10640625 -52.375 60.125 C-53.18710938 60.14820313 -53.99921875 60.17140625 -54.8359375 60.1953125 C-57 60 -57 60 -59 58 C-59.33333333 52.66666667 -59.33333333 52.66666667 -58 50 C-57.34 50 -56.68 50 -56 50 C-55.67 49.01 -55.34 48.02 -55 47 C-53.93072266 47.08701172 -53.93072266 47.08701172 -52.83984375 47.17578125 C-46.80775007 47.45993102 -43.22097918 47.25429007 -38.5625 43.3125 C-35.83487601 41.02129584 -32.61399566 39 -29 39 C-28.67 38.01 -28.34 37.02 -28 36 C-25.9375 35.3125 -25.9375 35.3125 -24 35 C-24 34.34 -24 33.68 -24 33 C-23.21625 32.4225 -22.4325 31.845 -21.625 31.25 C-18.78748678 29.22529597 -18.78748678 29.22529597 -18.125 26.125 C-16.72619485 22.23943013 -14.76010606 20.77288868 -11.55859375 18.296875 C-9.86465159 17.06388375 -9.86465159 17.06388375 -9 15 C-6.4375 14.375 -6.4375 14.375 -4 14 C-3.87625 13.21625 -3.7525 12.4325 -3.625 11.625 C-3 9 -3 9 -1 7 C-0.59952556 4.67724823 -0.2602896 2.34260643 0 0 Z " fill="#BC9070" transform="translate(304,390)"/>
<path d="M0 0 C0.72552063 -0.00078552 1.45104126 -0.00157104 2.19854736 -0.00238037 C15.61754712 0.01482394 28.53712988 1.41038271 41.74902344 3.84790039 C43.75748566 4.20817539 45.77183527 4.53669463 47.79003906 4.83764648 C54.13530506 5.78783354 59.77395764 7.21050425 65.6875 9.6875 C66.45151123 9.99800293 67.21552246 10.30850586 68.00268555 10.62841797 C69.52641125 11.24918917 71.04821995 11.87469106 72.56787109 12.50537109 C74.47768362 13.28891777 76.40405175 14.03181562 78.33203125 14.76953125 C88.15909969 18.58645672 88.15909969 18.58645672 91.6875 23.375 C91.6875 24.365 91.6875 25.355 91.6875 26.375 C92.3475 26.375 93.0075 26.375 93.6875 26.375 C94.05875 27.138125 94.43 27.90125 94.8125 28.6875 C95.43391076 29.91848512 96.05968332 31.14726961 96.6875 32.375 C97.39519531 33.7671875 97.39519531 33.7671875 98.1171875 35.1875 C98.89449219 36.6725 98.89449219 36.6725 99.6875 38.1875 C100.43 39.62029297 100.43 39.62029297 101.1875 41.08203125 C102.54279186 43.67164383 102.54279186 43.67164383 105.6875 44.375 C106.375 46.4375 106.375 46.4375 106.6875 48.375 C103.2225 46.89 103.2225 46.89 99.6875 45.375 C99.6875 44.715 99.6875 44.055 99.6875 43.375 C99.12933594 43.25640625 98.57117188 43.1378125 97.99609375 43.015625 C95.41021853 42.29805556 93.16271665 41.2997588 90.75 40.125 C89.91597656 39.72796875 89.08195313 39.3309375 88.22265625 38.921875 C85.23977742 37.10181334 83.1553902 34.8428902 80.6875 32.375 C78.56303207 30.91574294 76.39369434 29.51997952 74.1875 28.1875 C73.0840625 27.51332031 71.980625 26.83914062 70.84375 26.14453125 C66.29077438 23.59193477 62.9440539 22.07462549 57.6875 22.375 C57.3575 23.365 57.0275 24.355 56.6875 25.375 C55.12425768 25.25965396 53.56190317 25.13224874 52 25 C51.12988281 24.93039063 50.25976562 24.86078125 49.36328125 24.7890625 C46.53977708 24.35214069 44.33003127 23.44469032 41.6875 22.375 C24.09113454 18.14510446 6.15486822 17.1964193 -11.875 17.125 C-12.55336914 17.11973297 -13.23173828 17.11446594 -13.93066406 17.10903931 C-22.60441652 17.05687802 -30.81461139 17.6242576 -39.3125 19.375 C-40.81031006 19.67760742 -40.81031006 19.67760742 -42.33837891 19.98632812 C-63.43955441 24.44938371 -81.42601472 36.84947965 -96.0859375 52.2734375 C-99.17043198 55.18476738 -101.0537163 56.375 -105.3125 56.375 C-105.6425 57.365 -105.9725 58.355 -106.3125 59.375 C-108.203125 60.11328125 -108.203125 60.11328125 -110.5625 60.6875 C-115.61109181 62.24958423 -117.62704524 63.78373863 -120.3125 68.375 C-120.55859083 71.0719546 -120.40301362 73.65959136 -120.3125 76.375 C-123.3125 78.375 -123.3125 78.375 -126.3125 78.375 C-126.415625 79.014375 -126.51875 79.65375 -126.625 80.3125 C-126.851875 80.993125 -127.07875 81.67375 -127.3125 82.375 C-128.7975 82.87 -128.7975 82.87 -130.3125 83.375 C-130.3125 84.365 -130.3125 85.355 -130.3125 86.375 C-131.6325 86.375 -132.9525 86.375 -134.3125 86.375 C-134.3125 85.715 -134.3125 85.055 -134.3125 84.375 C-138.39814325 84.49044282 -138.39814325 84.49044282 -142.3125 85.375 C-144.39882697 88.29341857 -144.39882697 88.29341857 -145.3125 91.375 C-146.9625 91.045 -148.6125 90.715 -150.3125 90.375 C-150.3125 89.715 -150.3125 89.055 -150.3125 88.375 C-153.2825 88.375 -156.2525 88.375 -159.3125 88.375 C-159.41444968 82.05411997 -158.48817152 79.02206388 -154.1875 74.3125 C-152.56995028 72.65934384 -150.94527972 71.01311561 -149.3125 69.375 C-148.17594764 68.07249089 -147.04999652 66.76061479 -145.9375 65.4375 C-124.46259982 40.96495929 -95.35863946 21.28424725 -64.3125 11.375 C-62.99626656 10.86367511 -61.68316906 10.34411764 -60.375 9.8125 C-54.20029567 7.47037077 -47.70615434 5.99426246 -41.3125 4.375 C-40.5184375 4.16746094 -39.724375 3.95992188 -38.90625 3.74609375 C-26.18100321 0.63819694 -13.04340926 -0.03048141 0 0 Z " fill="#845E49" transform="translate(310.3125,111.625)"/>
<path d="M0 0 C3.30446932 2.40975741 5.22349883 3.818934 6.5390625 7.765625 C4.8890625 7.435625 3.2390625 7.105625 1.5390625 6.765625 C1.5390625 7.755625 1.5390625 8.745625 1.5390625 9.765625 C2.3434375 9.745 3.1478125 9.724375 3.9765625 9.703125 C6.5390625 9.765625 6.5390625 9.765625 7.5390625 10.765625 C7.57999187 13.09859933 7.58147973 15.43267725 7.5390625 17.765625 C6.8790625 17.765625 6.2190625 17.765625 5.5390625 17.765625 C5.3946875 18.343125 5.2503125 18.920625 5.1015625 19.515625 C4.58072917 21.59895833 4.05989583 23.68229167 3.5390625 25.765625 C4.32410156 25.86359375 5.10914063 25.9615625 5.91796875 26.0625 C12.26271959 26.96555656 17.46556546 27.70682737 22.5390625 31.765625 C23.5390625 34.953125 23.5390625 34.953125 23.5390625 37.765625 C22.5390625 38.765625 22.5390625 38.765625 19.7265625 38.953125 C16.67207706 38.77344939 15.10110906 38.34226904 12.5390625 36.765625 C12.0853125 37.879375 11.6315625 38.993125 11.1640625 40.140625 C9.5390625 43.765625 9.5390625 43.765625 7.5390625 45.765625 C2.1622891 46.81475152 -1.0047629 44.52077236 -5.3125 41.6640625 C-7.4609375 39.765625 -7.4609375 39.765625 -9.19921875 36.75390625 C-12.25813846 32.71232839 -15.28228109 31.95846168 -20.0234375 30.578125 C-21.5480287 30.11345111 -23.0702939 29.64105999 -24.58984375 29.16015625 C-25.26088135 28.96268799 -25.93191895 28.76521973 -26.62329102 28.56176758 C-28.80373851 27.61710978 -29.994222 26.63139642 -31.4609375 24.765625 C-31.4609375 23.775625 -31.4609375 22.785625 -31.4609375 21.765625 C-32.2859375 22.11625 -33.1109375 22.466875 -33.9609375 22.828125 C-38.95888932 24.16686209 -43.14074955 23.22211168 -48.1015625 22.24609375 C-56.76103349 20.56499533 -63.67336896 19.32021909 -71.734375 23.5 C-73.58122896 24.69837235 -73.58122896 24.69837235 -74.74609375 26.73046875 C-77.22208473 29.66894552 -79.92181547 30.34530505 -83.5234375 31.578125 C-84.16087891 31.80693359 -84.79832031 32.03574219 -85.45507812 32.27148438 C-87.10144402 32.838778 -88.78035878 33.30955717 -90.4609375 33.765625 C-91.1209375 33.435625 -91.7809375 33.105625 -92.4609375 32.765625 C-90.09524914 27.19929944 -86.6893021 23.06475721 -82.4609375 18.765625 C-81.94789063 18.24226563 -81.43484375 17.71890625 -80.90625 17.1796875 C-76.16737981 13.10095843 -71.46458938 13.37352861 -65.41015625 13.125 C-61.31268361 12.62570532 -59.98407826 10.93757338 -57.4609375 7.765625 C-51.4367704 3.38781413 -45.90710416 0.48158803 -38.3359375 0.453125 C-37.30210937 0.43636719 -36.26828125 0.41960937 -35.203125 0.40234375 C-32.4609375 0.765625 -32.4609375 0.765625 -30.59375 2.09765625 C-29.4609375 3.765625 -29.4609375 3.765625 -29.4609375 6.765625 C-27.83352006 5.97893982 -26.20907619 5.1861009 -24.5859375 4.390625 C-23.22855469 3.72933594 -23.22855469 3.72933594 -21.84375 3.0546875 C-19.36559278 1.86059801 -19.36559278 1.86059801 -17.4609375 -0.234375 C-11.95663528 -2.06515378 -5.25247261 -2.63457356 0 0 Z " fill="#CA9F84" transform="translate(298.4609375,152.234375)"/>
<path d="M0 0 C15.34414011 1.2177889 28.80865244 4.13819608 42.9609375 10.14648438 C44.83425646 10.93062267 46.72891947 11.66324928 48.625 12.390625 C54.09069432 14.50724192 58.46500093 16.20250127 62 21 C62 21.99 62 22.98 62 24 C62.66 24 63.32 24 64 24 C64.37125 24.763125 64.7425 25.52625 65.125 26.3125 C65.74641076 27.54348512 66.37218332 28.77226961 67 30 C67.47179687 30.928125 67.94359375 31.85625 68.4296875 32.8125 C68.94789063 33.8025 69.46609375 34.7925 70 35.8125 C70.7425 37.24529297 70.7425 37.24529297 71.5 38.70703125 C72.85529186 41.29664383 72.85529186 41.29664383 76 42 C76.6875 44.0625 76.6875 44.0625 77 46 C73.535 44.515 73.535 44.515 70 43 C70 42.34 70 41.68 70 41 C69.44183594 40.88140625 68.88367188 40.7628125 68.30859375 40.640625 C65.72271853 39.92305556 63.47521665 38.9247588 61.0625 37.75 C60.22847656 37.35296875 59.39445313 36.9559375 58.53515625 36.546875 C55.55227742 34.72681334 53.4678902 32.4678902 51 30 C48.87553207 28.54074294 46.70619434 27.14497952 44.5 25.8125 C43.3965625 25.13832031 42.293125 24.46414062 41.15625 23.76953125 C36.60327438 21.21693477 33.2565539 19.69962549 28 20 C27.67 20.99 27.34 21.98 27 23 C25.43675768 22.88465396 23.87440317 22.75724874 22.3125 22.625 C21.44238281 22.55539063 20.57226562 22.48578125 19.67578125 22.4140625 C16.85227708 21.97714069 14.64253127 21.06969032 12 20 C-5.59636546 15.77010446 -23.53263178 14.8214193 -41.5625 14.75 C-42.58005371 14.74209946 -42.58005371 14.74209946 -43.61816406 14.73403931 C-52.29165044 14.68187962 -60.50339749 15.23678782 -69 17 C-70.13695312 17.23460937 -71.27390625 17.46921875 -72.4453125 17.7109375 C-78.06908167 19.10458292 -83.29723855 20.85015748 -88.63671875 23.08984375 C-91.61803845 24.23802142 -94.57122603 24.9455029 -97.703125 25.55078125 C-99.34921766 25.87272114 -100.98449007 26.25201767 -102.609375 26.66796875 C-109.31018078 28.30352046 -109.31018078 28.30352046 -113.125 26.625 C-113.74375 26.08875 -114.3625 25.5525 -115 25 C-112.12145363 22.66911211 -109.38015172 21.16775203 -105.9375 19.8125 C-105.08027344 19.46832031 -104.22304687 19.12414062 -103.33984375 18.76953125 C-101 18 -101 18 -98 18 C-98 18.66 -98 19.32 -98 20 C-93.03248571 20.38660537 -90.61543449 19.52867178 -86.5625 16.6875 C-73.58764116 8.02595224 -60.81611342 7.64692672 -45.68457031 7.68432617 C-43.00544785 7.68749356 -40.32742481 7.66393146 -37.6484375 7.63867188 C-29.52783595 7.60958977 -21.98464974 7.62075953 -14.2097168 10.28759766 C-10.53349054 11.47279578 -6.8370881 11.68548458 -3 12 C-2.5359375 10.7934375 -2.5359375 10.7934375 -2.0625 9.5625 C-1 7 -1 7 0 6 C0.04080783 4.00041636 0.04254356 1.99954746 0 0 Z " fill="#5D3C2E" transform="translate(340,114)"/>
<path d="M0 0 C0.33 0 0.66 0 1 0 C0.48462048 7.13393752 -0.44005901 14.01812817 -2 21 C-2.66 21 -3.32 21 -4 21 C-3.4121875 22.794375 -3.4121875 22.794375 -2.8125 24.625 C-1.95730613 28.00989322 -1.93485274 28.83061713 -3.25 32.25 C-4.11625 33.61125 -4.11625 33.61125 -5 35 C-7.14324314 38.81021003 -8.65386891 42.51124313 -7.49609375 46.91796875 C-6.73326394 48.98280127 -5.89648906 50.9896912 -5 53 C-2 59.75336323 -2 59.75336323 -2 63 C-1.34 63 -0.68 63 0 63 C-0.33 56.4 -0.66 49.8 -1 43 C-0.34 42.67 0.32 42.34 1 42 C1.10957031 42.76183594 1.21914062 43.52367187 1.33203125 44.30859375 C2.33448622 50.83677611 3.72636513 56.79917763 6 63 C3.03 63.495 3.03 63.495 0 64 C0.05220703 65.24716797 0.05220703 65.24716797 0.10546875 66.51953125 C0.13253906 67.60621094 0.15960938 68.69289063 0.1875 69.8125 C0.23970703 71.43091797 0.23970703 71.43091797 0.29296875 73.08203125 C0 76 0 76 -1.3515625 77.90234375 C-3 79 -3 79 -5.5625 78.75 C-8 78 -8 78 -10 77 C-11.28306555 74.32646297 -12.47768734 71.66819741 -13.625 68.9375 C-13.94984375 68.17888672 -14.2746875 67.42027344 -14.609375 66.63867188 C-15.41213846 64.76162201 -16.20683143 62.8811244 -17 61 C-17.33 61 -17.66 61 -18 61 C-18.20625 62.0725 -18.4125 63.145 -18.625 64.25 C-20 68 -20 68 -22.5 70.5 C-27.21085523 72.51893796 -31.05347917 72.08991137 -36 71 C-39.20920029 67.79079971 -38.07730247 58.3324867 -38.125 53.9375 C-38.09933004 51.95806123 -38.05510082 49.97883822 -38 48 C-37.98211426 47.30358398 -37.96422852 46.60716797 -37.94580078 45.88964844 C-37.87727123 43.5296309 -37.78529883 41.17147522 -37.6875 38.8125 C-37.66510254 38.06411865 -37.64270508 37.3157373 -37.61962891 36.54467773 C-37.35729504 31.1656465 -36.09651328 26.96305958 -34 22 C-32.84589746 24.30820508 -32.8789703 25.60784276 -32.88647461 28.17431641 C-32.88655014 29.03505768 -32.88662567 29.89579895 -32.88670349 30.78262329 C-32.89186478 31.71287323 -32.89702606 32.64312317 -32.90234375 33.6015625 C-32.9037587 34.55316254 -32.90517365 35.50476257 -32.90663147 36.48519897 C-32.91223988 39.53183097 -32.92479381 42.57839013 -32.9375 45.625 C-32.94251392 47.68749894 -32.94707701 49.74999903 -32.95117188 51.8125 C-32.96221204 56.87502817 -32.97948233 61.93750173 -33 67 C-32.34 67 -31.68 67 -31 67 C-31 67.99 -31 68.98 -31 70 C-30.34 70 -29.68 70 -29 70 C-29.00523682 69.26587891 -29.01047363 68.53175781 -29.01586914 67.77539062 C-29.10014868 54.14557585 -29.16533674 40.58865879 -28 27 C-27.34 27 -26.68 27 -26 27 C-25.89171875 26.27296875 -25.7834375 25.5459375 -25.671875 24.796875 C-24.95251504 21.80233004 -23.92483567 19.82268573 -22.25 17.25 C-21.76015625 16.47140625 -21.2703125 15.6928125 -20.765625 14.890625 C-18.59648575 12.56791837 -17.10772002 12.31711429 -14 12 C-14.33 9.69 -14.66 7.38 -15 5 C-14.34 5 -13.68 5 -13 5 C-12.67 4.34 -12.34 3.68 -12 3 C-11.34 4.65 -10.68 6.3 -10 8 C-4.83975196 6.15009976 -2.48762265 5.11344656 0 0 Z " fill="#986950" transform="translate(170,237)"/>
<path d="M0 0 C0.99 0.495 0.99 0.495 2 1 C1.5630597 5.63156716 1.5630597 5.63156716 0 8 C-3.54034295 9.5339542 -7.24056174 10.18412191 -11 11 C-16.75819077 13.28154729 -21.51784492 16.60270071 -24.04296875 22.390625 C-24.77648591 24.58084525 -25.43289714 26.76143607 -26 29 C-26.66 29 -27.32 29 -28 29 C-28.09474609 30.35931641 -28.09474609 30.35931641 -28.19140625 31.74609375 C-29.08749755 40.65984405 -31.00493724 45.47085592 -37 52 C-38.40689147 53.96149216 -39.69696083 55.96725889 -41 58 C-43.475 55.525 -43.475 55.525 -46 53 C-46.226875 53.78375 -46.45375 54.5675 -46.6875 55.375 C-48.85316724 61.35636667 -51.7474681 66.95040234 -55.0625 72.375 C-57.39550803 76.35428385 -58.6576881 80.66546259 -60.05078125 85.04296875 C-61.24066316 88.7497202 -62.60274837 92.36714577 -64 96 C-64.66 96 -65.32 96 -66 96 C-66.4021875 96.9590625 -66.4021875 96.9590625 -66.8125 97.9375 C-68 100 -68 100 -71 101 C-67.47110377 68.28359348 -56.92082795 26.54246358 -32 3 C-32.33 5.31 -32.66 7.62 -33 10 C-30.03 10 -27.06 10 -24 10 C-24 10.66 -24 11.32 -24 12 C-21.525 12.495 -21.525 12.495 -19 13 C-18.87625 12.21625 -18.7525 11.4325 -18.625 10.625 C-18 8 -18 8 -16 6 C-13.31160615 5.73008094 -10.70858064 5.91262643 -8 6 C-8 6.66 -8 7.32 -8 8 C-6.68 8 -5.36 8 -4 8 C-4 7.01 -4 6.02 -4 5 C-3.01 4.34 -2.02 3.68 -1 3 C-0.67 2.01 -0.34 1.02 0 0 Z " fill="#996B4F" transform="translate(184,190)"/>
<path d="M0 0 C1.98 0.66 3.96 1.32 6 2 C6 2.99 6 3.98 6 5 C6.66 5 7.32 5 8 5 C11.24710892 20.56872758 9.96574634 34.58871099 7 50 C6.01 50.33 5.02 50.66 4 51 C2.81135907 56.05172397 2.64558307 61.13245916 2.39453125 66.29296875 C2.22576622 69.40639251 1.99148057 72.0255583 1 75 C0.74232692 78.24238627 0.55753192 81.47862321 0.39453125 84.7265625 C0.10159485 89.89840515 0.10159485 89.89840515 -1 91 C-1.03738281 92.2271875 -1.07476562 93.454375 -1.11328125 94.71875 C-1.55026253 108.08332906 -1.55026253 108.08332906 -5.66015625 112.16015625 C-9.73649648 115.45610892 -13.89902054 117.78097242 -19 119 C-20.10836423 120.88316159 -20.10836423 120.88316159 -21 123 C-21.97648017 124.02297922 -22.9739326 125.02676534 -24 126 C-29.84953949 102.7324121 -29.84953949 102.7324121 -28 95 C-25.02749321 90.85606197 -21.0296468 88.6336288 -16.75 86 C-12.71436694 83.06499414 -10.44671868 79.54249464 -9.58691406 74.64892578 C-9.38707109 72.1150958 -9.29251451 69.60370832 -9.25 67.0625 C-9.22035156 66.18787109 -9.19070313 65.31324219 -9.16015625 64.41210938 C-9.09009434 62.27522123 -9.04270949 60.13760977 -9 58 C-8.67 58 -8.34 58 -8 58 C-7.67 59.65 -7.34 61.3 -7 63 C-5.68 63 -4.36 63 -3 63 C-2.89042969 62.44054687 -2.78085937 61.88109375 -2.66796875 61.3046875 C-2.50941406 60.50289063 -2.35085938 59.70109375 -2.1875 58.875 C-2.00832031 57.946875 -1.82914062 57.01875 -1.64453125 56.0625 C-1.22085433 54.0493927 -0.74028255 52.04728037 -0.19921875 50.0625 C1.82457771 42.23587481 2.3194833 34.81472627 2.375 26.75 C2.38869629 25.74437012 2.40239258 24.73874023 2.41650391 23.70263672 C2.38035576 17.76359338 1.63600031 12.83525209 -0.45458984 7.26269531 C-1.11049668 4.54159213 -0.7121132 2.67943672 0 0 Z " fill="#9F725D" transform="translate(432,208)"/>
<path d="M0 0 C0.94101563 0.20496094 1.88203125 0.40992188 2.8515625 0.62109375 C4.09679687 0.89050781 5.34203125 1.15992188 6.625 1.4375 C7.85476563 1.70433594 9.08453125 1.97117187 10.3515625 2.24609375 C12.64221135 2.71942911 14.9415944 3.15391447 17.25 3.53125 C20.30310953 4.0516664 23.08718597 4.95970927 26 6 C25.66480526 11.36311579 22.45865747 15.12824761 19 19 C18.28972656 19.52980469 17.57945312 20.05960937 16.84765625 20.60546875 C14.81749777 21.86723095 14.81749777 21.86723095 14.25 24.1875 C14.1675 24.785625 14.085 25.38375 14 26 C10.04 26.495 10.04 26.495 6 27 C5.505 29.475 5.505 29.475 5 32 C4.34 32 3.68 32 3 32 C2.90203125 32.56847656 2.8040625 33.13695312 2.703125 33.72265625 C1.63676081 39.22914031 0.01715751 43.2731199 -3 48 C-4.75 47.875 -4.75 47.875 -7 47 C-7.61875 45.989375 -8.2375 44.97875 -8.875 43.9375 C-10.70779691 40.70943035 -10.70779691 40.70943035 -14 40.375 C-17.571013 41.11896104 -18.75860692 42.17750502 -21 45 C-21.33 45.66 -21.66 46.32 -22 47 C-27.01897047 46.28300422 -30.31197028 44.09721932 -34.5 41.375 C-37.04805016 39.97357241 -39.13766876 39.40890446 -42 39 C-40.515 38.505 -40.515 38.505 -39 38 C-38.92265625 37.2265625 -38.8453125 36.453125 -38.765625 35.65625 C-38 33 -38 33 -36.109375 31.59375 C-35.33078125 31.2328125 -34.5521875 30.871875 -33.75 30.5 C-30.68282791 28.97120641 -29.04844671 28.05517542 -26.75 25.4375 C-21.53395707 20.81418922 -13.88575937 19 -7 19 C-6.773125 17.845 -6.54625 16.69 -6.3125 15.5 C-5.2980977 11.33132484 -3.47293983 8.25190559 -1.0234375 4.76171875 C0.25116026 2.90722913 0.25116026 2.90722913 0 0 Z " fill="#976B53" transform="translate(254,375)"/>
<path d="M0 0 C0.66 1.32 1.32 2.64 2 4 C6.47427924 4.08948558 10.60563789 3.85743651 15 3 C15 3.66 15 4.32 15 5 C10.61538462 8 10.61538462 8 8 8 C8 8.66 8 9.32 8 10 C7.195625 10.33 6.39125 10.66 5.5625 11 C-0.54481001 14.04636704 -6.03488294 18.868741 -9 25 C-10.97956942 26.69088222 -12.97945196 28.35830472 -15 30 C-17.09718296 33.14577443 -17.19223461 33.56806371 -16.9375 37.0625 C-16.958125 38.361875 -16.97875 39.66125 -17 41 C-20 43 -20 43 -23 43 C-23.103125 43.639375 -23.20625 44.27875 -23.3125 44.9375 C-23.539375 45.618125 -23.76625 46.29875 -24 47 C-25.485 47.495 -25.485 47.495 -27 48 C-27 48.99 -27 49.98 -27 51 C-28.32 51 -29.64 51 -31 51 C-31 50.34 -31 49.68 -31 49 C-35.08564325 49.11544282 -35.08564325 49.11544282 -39 50 C-41.08632697 52.91841857 -41.08632697 52.91841857 -42 56 C-43.65 55.67 -45.3 55.34 -47 55 C-47 54.34 -47 53.68 -47 53 C-49.97 53 -52.94 53 -56 53 C-56.10194968 46.67911997 -55.17567152 43.64706388 -50.875 38.9375 C-49.25761979 37.28417801 -47.63280563 35.63808979 -46 34 C-44.73781741 32.57318489 -43.48659401 31.13654848 -42.25 29.6875 C-41.68410156 29.048125 -41.11820313 28.40875 -40.53515625 27.75 C-39.22321079 26.25444894 -37.95100446 24.72419462 -36.6875 23.1875 C-33.43488513 20.54002278 -30.5834883 19.8657155 -26.578125 18.81640625 C-22.64702751 17.57155871 -19.22993736 15.55527682 -16 13 C-15.67 12.34 -15.34 11.68 -15 11 C-14.01 10.67 -13.02 10.34 -12 10 C-11.2575 9.2575 -10.515 8.515 -9.75 7.75 C-6.69504521 4.69504521 -3.55633138 2.44061957 0 0 Z " fill="#825841" transform="translate(207,147)"/>
<path d="M0 0 C0.495 0.99 0.495 0.99 1 2 C1.99 1.67 2.98 1.34 4 1 C6.0078125 1.48828125 6.0078125 1.48828125 8.125 2.3125 C8.82882812 2.57675781 9.53265625 2.84101563 10.2578125 3.11328125 C12 4 12 4 13 6 C11.68 6 10.36 6 9 6 C8.81824219 6.92232422 8.81824219 6.92232422 8.6328125 7.86328125 C8.46523438 8.67152344 8.29765625 9.47976563 8.125 10.3125 C7.96257812 11.11300781 7.80015625 11.91351563 7.6328125 12.73828125 C7 15 7 15 5 18 C4.896875 19.27875 4.79375 20.5575 4.6875 21.875 C4.33320402 25.21026903 4.02160036 25.97284526 1.8125 28.75 C-1 31 -1 31 -3.9375 32.875 C-6.57154552 34.70270506 -7.93574375 36.00423268 -9.875 38.4375 C-12.60211427 41.80501842 -15.51606129 43.72650203 -19.24609375 45.87109375 C-21.38261116 47.24626865 -22.53617859 48.95065003 -24 51 C-28.10430988 52.75898995 -33.17658049 52.57581669 -37.375 51.25 C-39.42645046 49.67196119 -39.66411682 48.51912388 -40 46 C-41.4540625 47.0209375 -41.4540625 47.0209375 -42.9375 48.0625 C-46.7748996 50.24973993 -49.6167317 50.3381268 -53.921875 49.61328125 C-58.52958354 48.25348756 -61.49064019 44.96214706 -64 41 C-64 40.34 -64 39.68 -64 39 C-67.65079826 37.38935371 -71.0507432 36.55105909 -75 36 C-75 35.34 -75 34.68 -75 34 C-68.08075708 32.38060272 -62.90235139 33.77396303 -56.75390625 37.28125 C-55.39762694 38.13732355 -54.05344296 39.01309429 -52.7265625 39.9140625 C-50.87636244 41.17310268 -50.87636244 41.17310268 -48 42 C-47.731875 41.21625 -47.46375 40.4325 -47.1875 39.625 C-46 37 -46 37 -43 35 C-40.0625 34.5625 -40.0625 34.5625 -37 35 C-34.83392475 37.22461782 -33.38311239 39.23377522 -32 42 C-31.01 42.33 -30.02 42.66 -29 43 C-27.54767747 39.42152963 -26.18773455 35.81939893 -24.875 32.1875 C-24.52179688 31.21167969 -24.16859375 30.23585938 -23.8046875 29.23046875 C-23.53914063 28.49441406 -23.27359375 27.75835937 -23 27 C-22.34 27 -21.68 27 -21 27 C-21.495 25.515 -21.495 25.515 -22 24 C-21.34 23.01 -20.68 22.02 -20 21 C-18.0546875 20.70703125 -18.0546875 20.70703125 -15.875 20.8125 C-14.59625 20.874375 -13.3175 20.93625 -12 21 C-11.95875 20.278125 -11.9175 19.55625 -11.875 18.8125 C-10.83941171 15.48382336 -9.27252298 14.45180838 -6.5625 12.38671875 C-3.01784671 9.24083895 -0.74712552 4.66953448 0 0 Z " fill="#B98D71" transform="translate(280,380)"/>
<path d="M0 0 C1.32 1.32 2.64 2.64 4 4 C6.67562831 4.60343958 9.0480049 5.00482842 11.75 5.25 C12.44738281 5.32734375 13.14476562 5.4046875 13.86328125 5.484375 C15.57388433 5.67183835 17.28679271 5.83805503 19 6 C18.67 7.65 18.34 9.3 18 11 C17.01 11 16.02 11 15 11 C14.896875 12.0725 14.79375 13.145 14.6875 14.25 C14.02056088 17.88784974 13.61917683 19.47782972 11 22 C9.67405895 22.36162029 8.34061543 22.69728039 7 23 C4.48994336 26.76508495 4.9741705 29.39461609 5.375 33.6875 C5.43171875 34.38939453 5.4884375 35.09128906 5.546875 35.81445312 C5.68804641 37.54380285 5.84271959 39.27204088 6 41 C0.94962955 34.30825915 -3 27.57905102 -3 19 C-4.32 19.33 -5.64 19.66 -7 20 C-6.34 18.02 -5.68 16.04 -5 14 C-4.34 14 -3.68 14 -3 14 C-2.01 9.38 -1.02 4.76 0 0 Z " fill="#AD826A" transform="translate(220,265)"/>
<path d="M0 0 C9.80543755 7.48266046 12.27052676 16.41214544 15 28 C15.54527344 29.54494141 15.54527344 29.54494141 16.1015625 31.12109375 C17.43719092 36.88752429 17.20863037 42.54155869 17.125 48.4375 C17.11597656 49.64599609 17.10695313 50.85449219 17.09765625 52.09960938 C17.07420168 55.06661278 17.04137794 58.03320143 17 61 C16.34 61 15.68 61 15 61 C14.87882812 60.05640625 14.75765625 59.1128125 14.6328125 58.140625 C13.57848745 50.06287311 12.40491015 42.02592287 11 34 C10.34 34 9.68 34 9 34 C3.46252129 23.24276677 1.86202867 11.83233144 0 0 Z " fill="#64422D" transform="translate(468,186)"/>
<path d="M0 0 C2.4375 1.25 2.4375 1.25 3.4375 4.25 C2.1175 4.25 0.7975 4.25 -0.5625 4.25 C-0.4696875 5.27480469 -0.376875 6.29960937 -0.28125 7.35546875 C0.39851572 18.04032987 0.39851572 18.04032987 -2.23828125 21.359375 C-5.48408761 23.37687804 -7.71778549 24.25 -11.5625 24.25 C-12.2225 23.26 -12.8825 22.27 -13.5625 21.25 C-14.2225 21.023125 -14.8825 20.79625 -15.5625 20.5625 C-18.0709006 18.91636211 -18.1107257 17.97721127 -18.8125 15.125 C-19.06 13.84625 -19.3075 12.5675 -19.5625 11.25 C-18.95921875 10.98445313 -18.3559375 10.71890625 -17.734375 10.4453125 C-16.93515625 10.09210938 -16.1359375 9.73890625 -15.3125 9.375 C-14.12914062 8.85292969 -14.12914062 8.85292969 -12.921875 8.3203125 C-12.14328125 7.96710938 -11.3646875 7.61390625 -10.5625 7.25 C-9.82773437 6.92902344 -9.09296875 6.60804688 -8.3359375 6.27734375 C-5.81170065 4.81506557 -5.52261208 2.92459794 -4.5625 0.25 C-2.5625 -0.75 -2.5625 -0.75 0 0 Z " fill="#9C7050" transform="translate(285.5625,435.75)"/>
<path d="M0 0 C0.33 0 0.66 0 1 0 C0.48462048 7.13393752 -0.44005901 14.01812817 -2 21 C-2.66 21 -3.32 21 -4 21 C-3.608125 22.19625 -3.21625 23.3925 -2.8125 24.625 C-1.95730613 28.00989322 -1.93485274 28.83061713 -3.25 32.25 C-4.11625 33.61125 -4.11625 33.61125 -5 35 C-6.51609208 37.94300227 -7.79975744 40.91366198 -9 44 C-10.54296875 42.78515625 -10.54296875 42.78515625 -12 41 C-11.92578125 38.87109375 -11.92578125 38.87109375 -11.3125 36.4375 C-11.10109375 35.550625 -10.8896875 34.66375 -10.671875 33.75 C-10.45015625 32.8425 -10.2284375 31.935 -10 31 C-9.68124265 29.31367078 -9.36857281 27.62617757 -9.0625 25.9375 C-8.11224775 21.14062665 -6.66409422 16.59290006 -5 12 C-6.91864771 12.25642304 -8.83490994 12.53073436 -10.75 12.8125 C-11.81734375 12.96332031 -12.8846875 13.11414063 -13.984375 13.26953125 C-17.05451094 14.01320407 -18.66080478 14.92765472 -21 17 C-20.3125 15.0625 -20.3125 15.0625 -19 13 C-16.375 12.25 -16.375 12.25 -14 12 C-14.33 9.69 -14.66 7.38 -15 5 C-14.34 5 -13.68 5 -13 5 C-12.67 4.34 -12.34 3.68 -12 3 C-11.34 4.65 -10.68 6.3 -10 8 C-4.83975196 6.15009976 -2.48762265 5.11344656 0 0 Z " fill="#9A6D54" transform="translate(170,237)"/>
<path d="M0 0 C-0.75172414 6.38965517 -0.75172414 6.38965517 -1.9375 9.3046875 C-3.18795687 12.47680235 -3.90849484 15.60466541 -4.625 18.9375 C-4.88539063 20.12214844 -5.14578125 21.30679687 -5.4140625 22.52734375 C-5.96080308 25.76769294 -6.1100679 28.72297831 -6 32 C-8.6855594 29.3144406 -9.06049974 26.62378672 -10 23 C-10.99 23 -11.98 23 -13 23 C-13 22.34 -13 21.68 -13 21 C-13.99 21 -14.98 21 -16 21 C-15.59723917 14.01881225 -13.94724457 6.85992365 -10 1 C-6.52133003 -0.00783896 -3.63245925 0 0 0 Z " fill="#84583F" transform="translate(165,249)"/>
<path d="M0 0 C6.84691993 2.15188912 10.34385926 7.17725734 14 13 C8.2057031 14.15885938 2.54984762 15.11555833 -3 12.6875 C-3.66 12.130625 -4.32 11.57375 -5 11 C-5 10.01 -5 9.02 -5 8 C-7.31 7.67 -9.62 7.34 -12 7 C-12.33 5.68 -12.66 4.36 -13 3 C-8.71 3 -4.42 3 0 3 C0 2.01 0 1.02 0 0 Z " fill="#A0735D" transform="translate(320,170)"/>
<path d="M0 0 C0.66 0.66 1.32 1.32 2 2 C-1.66866356 6.5142775 -5.33534808 10.50151106 -10 14 C-10.66 14 -11.32 14 -12 14 C-12.33 14.99 -12.66 15.98 -13 17 C-13.99 17 -14.98 17 -16 17 C-16.33 17.99 -16.66 18.98 -17 20 C-19.29296875 21.5703125 -19.29296875 21.5703125 -22.1875 23.125 C-23.60095703 23.90230469 -23.60095703 23.90230469 -25.04296875 24.6953125 C-28.06825455 26.03011495 -30.72945962 26.60268991 -34 27 C-30.55758266 22.62339505 -27.03501025 19.13368287 -22.625 15.75 C-22.02864746 15.2861792 -21.43229492 14.8223584 -20.81787109 14.34448242 C-14.11968128 9.20734827 -7.08809129 4.57648471 0 0 Z " fill="#946A53" transform="translate(208,141)"/>
<path d="M0 0 C0.73605469 0.01353516 1.47210938 0.02707031 2.23046875 0.04101562 C4.02896743 0.07605131 5.82708422 0.12984712 7.625 0.1875 C6.46295357 3.6736393 6.04337389 3.80705973 2.9375 5.4375 C2.13699219 5.85773438 1.33648437 6.27796875 0.51171875 6.7109375 C-0.44089844 7.19820312 -1.39351562 7.68546875 -2.375 8.1875 C-3.57710252 8.82499388 -4.77890892 9.46304634 -5.98046875 10.1015625 C-7.236353 10.75641062 -8.49286313 11.41005982 -9.75 12.0625 C-10.35674561 12.38508789 -10.96349121 12.70767578 -11.58862305 13.04003906 C-13.14694537 13.8334618 -14.75923918 14.51876609 -16.375 15.1875 C-17.365 14.8575 -18.355 14.5275 -19.375 14.1875 C-18 12.6875 -18 12.6875 -16.375 11.1875 C-15.715 11.1875 -15.055 11.1875 -14.375 11.1875 C-14.375 8.5475 -14.375 5.9075 -14.375 3.1875 C-9.35513301 0.17082915 -5.66176196 -0.19964622 0 0 Z " fill="#CA9E87" transform="translate(242.375,146.8125)"/>
<path d="M0 0 C6.08926908 2.75740486 11.23012384 6.19459187 16.58203125 10.1953125 C18.35055886 11.5152798 20.16382437 12.77588291 22 14 C22.94921875 16.1640625 22.94921875 16.1640625 23.6875 18.625 C23.93886719 19.44226563 24.19023437 20.25953125 24.44921875 21.1015625 C24.63097656 21.72804687 24.81273437 22.35453125 25 23 C20.22700947 21.49227028 17.11740659 18.81047279 13.4375 15.5625 C12.31203752 14.5836692 11.18575551 13.60577978 10.05859375 12.62890625 C9.53152832 12.16943604 9.00446289 11.70996582 8.46142578 11.23657227 C7.25049727 10.21195601 5.9845972 9.25271889 4.70703125 8.3125 C2.41328094 6.5488842 1.30984032 4.55418862 0 2 C0 1.34 0 0.68 0 0 Z " fill="#604130" transform="translate(415,140)"/>
<path d="M0 0 C5.87000831 0.43863798 10.06436939 1.65676062 15.125 4.75 C15.70636719 5.08515625 16.28773438 5.4203125 16.88671875 5.765625 C20.93858998 8.15867647 24.45006074 10.91403456 28 14 C27.34 14.33 26.68 14.66 26 15 C23.59075637 14.15423339 21.28237857 13.24872348 18.9375 12.25 C17.56967347 11.68718792 16.20118546 11.12598072 14.83203125 10.56640625 C13.83937256 10.15865967 13.83937256 10.15865967 12.82666016 9.74267578 C6.7668567 7.27890645 1.30311204 5.68403246 -5.25 5.30859375 C-5.8275 5.20675781 -6.405 5.10492188 -7 5 C-7.33 4.34 -7.66 3.68 -8 3 C-5.69 3.33 -3.38 3.66 -1 4 C-0.67 2.68 -0.34 1.36 0 0 Z " fill="#806153" transform="translate(368,133)"/>
<path d="M0 0 C0.99 0.33 1.98 0.66 3 1 C2.01 1.33 1.02 1.66 0 2 C0 1.34 0 0.68 0 0 Z M-2 2 C-1.34 2.33 -0.68 2.66 0 3 C0 4.32 0 5.64 0 7 C-8.85988899 10.94705955 -17.74222535 13.92267547 -27.125 16.375 C-28.12023682 16.63748535 -29.11547363 16.8999707 -30.14086914 17.17041016 C-34.5544286 18.2911829 -38.42220448 19.14404579 -43 19 C-39.99727182 16.99818121 -37.39819024 16.13273008 -34 15 C-33.01 14.34 -32.02 13.68 -31 13 C-28.61700383 12.55058745 -26.21774516 12.18393057 -23.8125 11.875 C-22.54019531 11.70742188 -21.26789063 11.53984375 -19.95703125 11.3671875 C-18.98121094 11.24601562 -18.00539063 11.12484375 -17 11 C-17 10.34 -17 9.68 -17 9 C-14 7 -14 7 -10.625 6.0625 C-7.01528111 5.17016126 -7.01528111 5.17016126 -4.1875 3.3125 C-3.465625 2.879375 -2.74375 2.44625 -2 2 Z " fill="#A57B4D" transform="translate(393,491)"/>
<path d="M0 0 C0.99 0.33 1.98 0.66 3 1 C-6.17103399 12.21954674 -6.17103399 12.21954674 -13 13 C-13.33 13.99 -13.66 14.98 -14 16 C-15.98 16.33 -17.96 16.66 -20 17 C-18.50867052 12.27745665 -18.50867052 12.27745665 -15.9375 10.875 C-15.298125 10.58625 -14.65875 10.2975 -14 10 C-13.67 9.01 -13.34 8.02 -13 7 C-11.51171875 5.6484375 -11.51171875 5.6484375 -9.6875 4.375 C-8.79611328 3.73691406 -8.79611328 3.73691406 -7.88671875 3.0859375 C-5.90735451 1.94667609 -4.25248567 1.35540286 -2 1 C-1.67 1.33 -1.34 1.66 -1 2 C-0.67 1.34 -0.34 0.68 0 0 Z " fill="#91654E" transform="translate(218,155)"/>
<path d="M0 0 C0.66 0 1.32 0 2 0 C4.436168 7.49701701 5.41136629 14.12309743 5 22 C3.02 22 1.04 22 -1 22 C-2.3157048 17.23057011 -3.47543452 12.99206251 -3 8 C-2.34 7.34 -1.68 6.68 -1 6 C-0.60235737 4.01178687 -0.26224651 2.01055661 0 0 Z " fill="#AD8469" transform="translate(297,362)"/>
<path d="M0 0 C4.35574636 0.48397182 6.0913259 1.79042858 9 5 C9.66 5.33 10.32 5.66 11 6 C11.12375 6.9590625 11.12375 6.9590625 11.25 7.9375 C11.4975 8.618125 11.745 9.29875 12 10 C12.94875 10.309375 13.8975 10.61875 14.875 10.9375 C18 12 18 12 19.875 14.3125 C21.05205769 17.12436004 21.2582522 18.98705767 21 22 C20.34 21.67 19.68 21.34 19 21 C19 20.34 19 19.68 19 19 C18.01 18.67 17.02 18.34 16 18 C16 17.34 16 16.68 16 16 C15.45730469 15.75894531 14.91460937 15.51789063 14.35546875 15.26953125 C11.41254167 13.68337652 8.93000356 11.76682526 6.3125 9.6875 C5.33925781 8.92824219 4.36601562 8.16898438 3.36328125 7.38671875 C0.82309883 4.82134443 0.26934065 3.53901087 0 0 Z " fill="#674635" transform="translate(424,161)"/>
<path d="M0 0 C0.66 0.33 1.32 0.66 2 1 C1.67 1.33 1.34 1.66 1 2 C3.31 2.33 5.62 2.66 8 3 C8 3.33 8 3.66 8 4 C7.40832031 4.02578125 6.81664062 4.0515625 6.20703125 4.078125 C0.85230322 4.46247742 -1.96477187 5.20933115 -6 9 C-6.66 9 -7.32 9 -8 9 C-8.22945312 9.56460938 -8.45890625 10.12921875 -8.6953125 10.7109375 C-10.34679367 13.60844637 -12.38324604 15.41421533 -14.875 17.625 C-16.17050781 18.78902344 -16.17050781 18.78902344 -17.4921875 19.9765625 C-19.63154679 21.70271221 -21.49339953 22.91574957 -24 24 C-18.85003246 12.84173699 -9.92642174 6.69219826 0 0 Z " fill="#B2866B" transform="translate(224,162)"/>
<path d="M0 0 C3.3 0.33 6.6 0.66 10 1 C9.8125 3.3125 9.8125 3.3125 9 6 C6.5 7.6875 6.5 7.6875 4 9 C3.67 9.66 3.34 10.32 3 11 C0.69 10.67 -1.62 10.34 -4 10 C-3.67 7.69 -3.34 5.38 -3 3 C-2.01 2.67 -1.02 2.34 0 2 C0 1.34 0 0.68 0 0 Z " fill="#A1745D" transform="translate(229,270)"/>
<path d="M0 0 C1.65 0 3.3 0 5 0 C3.68 6.93 2.36 13.86 1 21 C-0.98 21 -2.96 21 -5 21 C-4.35451147 18.24991865 -3.70862234 15.49993244 -3.0625 12.75 C-2.88009766 11.97269531 -2.69769531 11.19539063 -2.50976562 10.39453125 C-2.33251953 9.64042969 -2.15527344 8.88632812 -1.97265625 8.109375 C-1.72914429 7.07248535 -1.72914429 7.07248535 -1.48071289 6.01464844 C-1.0014338 4.00600899 -0.50453398 2.00243058 0 0 Z " fill="#885B44" transform="translate(267,380)"/>
<path d="M0 0 C6.58294611 3.03713196 13.00167327 7.91558976 17 14 C17 14.66 17 15.32 17 16 C14.61613016 15.57430896 13.13410116 15.10173191 11.1875 13.625 C8.89478951 11.78374794 8.89478951 11.78374794 5.375 10.5 C2 9 2 9 0 6 C-0.125 2.8125 -0.125 2.8125 0 0 Z " fill="#9B735E" transform="translate(427,168)"/>
<path d="M0 0 C5.40463613 4.21626734 7.59612372 13.50046982 9 20 C9.37690555 24.72303118 8.81170851 29.34374479 8 34 C7.34 34 6.68 34 6 34 C5.90203125 33.1028125 5.8040625 32.205625 5.703125 31.28125 C4.75926145 23.40487139 3.38451357 15.8567647 1.32128906 8.19335938 C0.56177993 5.35919863 0 2.95146474 0 0 Z " fill="#6B4935" transform="translate(497,234)"/>
<path d="M0 0 C0.33 0 0.66 0 1 0 C1.08564209 0.77601563 1.17128418 1.55203125 1.25952148 2.3515625 C1.65159155 5.90110706 2.04453868 9.45055401 2.4375 13 C2.57220703 14.22074219 2.70691406 15.44148438 2.84570312 16.69921875 C2.97783203 17.89160156 3.10996094 19.08398438 3.24609375 20.3125 C3.37298584 21.46878906 3.49987793 22.62507813 3.63061523 23.81640625 C3.93855566 26.47043347 4.30064141 29.10681479 4.6875 31.75 C5 35 5 35 3.5625 37 C2.7890625 37.495 2.7890625 37.495 2 38 C2 37.01 2 36.02 2 35 C1.34 35 0.68 35 0 35 C0 23.45 0 11.9 0 0 Z " fill="#9E714C" transform="translate(112,293)"/>
<path d="M0 0 C0.66 0.33 1.32 0.66 2 1 C-2.02502206 5.42752427 -7.69153191 8.60103767 -13.65625 9.3203125 C-15.77351658 9.31361229 -17.88957442 9.17019561 -20 9 C-19.34 8.67 -18.68 8.34 -18 8 C-17.731875 7.175 -17.46375 6.35 -17.1875 5.5 C-16.795625 4.675 -16.40375 3.85 -16 3 C-12.39347938 1.93588526 -8.92734931 1.89244157 -5.1875 1.9375 C-4.21167969 1.94652344 -3.23585937 1.95554687 -2.23046875 1.96484375 C-1.12638672 1.98224609 -1.12638672 1.98224609 0 2 C0 1.34 0 0.68 0 0 Z " fill="#855941" transform="translate(256,406)"/>
<path d="M0 0 C0.33 0.66 0.66 1.32 1 2 C1.66 2 2.32 2 3 2 C3 2.66 3 3.32 3 4 C3.99 4 4.98 4 6 4 C6.66 9.94 7.32 15.88 8 22 C3.79058296 16.38744395 0.44110298 10.94462557 -1 4 C-0.578125 1.72265625 -0.578125 1.72265625 0 0 Z " fill="#A0735C" transform="translate(218,284)"/>
<path d="M0 0 C1.58493084 3.16986168 1.2940042 6.54032261 1 10 C0 12.5 0 12.5 -1 14 C-1.66 14 -2.32 14 -3 14 C-6.44419134 4.58997722 -6.44419134 4.58997722 -6 0 C-3 -1 -3 -1 0 0 Z " fill="#89644F" transform="translate(401,365)"/>
<path d="M0 0 C3.02496581 1.35062287 5.0805694 2.85029237 7.3828125 5.22265625 C8.29740234 6.15368164 8.29740234 6.15368164 9.23046875 7.10351562 C9.85566406 7.74998047 10.48085938 8.39644531 11.125 9.0625 C12.37536074 10.3472393 13.62786516 11.62989681 14.8828125 12.91015625 C15.43340332 13.47871338 15.98399414 14.04727051 16.55126953 14.63305664 C17.97414012 16.10729905 17.97414012 16.10729905 20 17 C20 17.66 20 18.32 20 19 C20.66 19 21.32 19 22 19 C22 19.66 22 20.32 22 21 C20.68 21.33 19.36 21.66 18 22 C17.5153125 21.35933594 17.030625 20.71867187 16.53125 20.05859375 C9.40968045 10.76874459 9.40968045 10.76874459 0 4 C0 2.68 0 1.36 0 0 Z " fill="#9F725D" transform="translate(324,160)"/>
<path d="M0 0 C0.66 0 1.32 0 2 0 C2.76171875 2.05859375 2.76171875 2.05859375 3 5 C1.70250341 7.55691766 0.42577335 9.72560789 -1.1875 12.0625 C-1.58775391 12.67416016 -1.98800781 13.28582031 -2.40039062 13.91601562 C-4.63712774 17.26930871 -6.87591132 20.4062949 -10 23 C-10.99 23 -11.98 23 -13 23 C-12 21 -12 21 -11 19 C-10.690625 18.319375 -10.38125 17.63875 -10.0625 16.9375 C-8.931399 14.87490406 -7.80445083 13.50370902 -6 12 C-5.34 12 -4.68 12 -4 12 C-1.78600697 8.20458337 -0.99019802 4.24370579 0 0 Z " fill="#A27352" transform="translate(441,401)"/>
<path d="M0 0 C4.75 1.875 4.75 1.875 7 3 C7.81995084 5.2396537 8.53321782 7.51896934 9.1875 9.8125 C9.55230469 11.05644531 9.91710937 12.30039063 10.29296875 13.58203125 C10.93153419 16.66901886 11.13382109 18.13294922 10 21 C7.55095326 17.04384758 5.39362479 12.97040485 3.3125 8.8125 C2.99216797 8.18408203 2.67183594 7.55566406 2.34179688 6.90820312 C0 2.23958889 0 2.23958889 0 0 Z " fill="#9E735D" transform="translate(391,165)"/>
<path d="M0 0 C1.34882775 2.69765551 1 5.01578022 1 8 C2.58272601 9.58272601 4.38034003 9.34735747 6.5625 9.5625 C7.38878906 9.64628906 8.21507812 9.73007812 9.06640625 9.81640625 C9.70449219 9.87699219 10.34257812 9.93757813 11 10 C11.33 11.65 11.66 13.3 12 15 C10.3745692 14.85904936 8.74965949 14.71207913 7.125 14.5625 C6.22007812 14.48128906 5.31515625 14.40007812 4.3828125 14.31640625 C2 14 2 14 0 13 C0 12.34 0 11.68 0 11 C-1.32 10.34 -2.64 9.68 -4 9 C-3.01 8.67 -2.02 8.34 -1 8 C-1.020625 6.865625 -1.04125 5.73125 -1.0625 4.5625 C-1 1 -1 1 0 0 Z " fill="#A07453" transform="translate(245,440)"/>
<path d="M0 0 C0.33 0 0.66 0 1 0 C1.10957031 0.76183594 1.21914062 1.52367187 1.33203125 2.30859375 C2.33448622 8.83677611 3.72636513 14.79917763 6 21 C2.04 21.495 2.04 21.495 -2 22 C-1.34 21.67 -0.68 21.34 0 21 C-0.03552979 20.39937744 -0.07105957 19.79875488 -0.10766602 19.17993164 C-0.26468681 16.47440314 -0.41369797 13.76849243 -0.5625 11.0625 C-0.61857422 10.11697266 -0.67464844 9.17144531 -0.73242188 8.19726562 C-0.78076172 7.29814453 -0.82910156 6.39902344 -0.87890625 5.47265625 C-0.9260376 4.64000244 -0.97316895 3.80734863 -1.02172852 2.94946289 C-1 1 -1 1 0 0 Z " fill="#9E7157" transform="translate(170,279)"/>
<path d="M0 0 C0.66 0 1.32 0 2 0 C2.66 1.32 3.32 2.64 4 4 C3.01 4.66 2.02 5.32 1 6 C-1.73480811 11.97216642 -2.39100549 18.35717924 -2.69140625 24.84765625 C-2.84416016 25.91306641 -2.84416016 25.91306641 -3 27 C-3.66 27.33 -4.32 27.66 -5 28 C-4.34 20.08 -3.68 12.16 -3 4 C-2.34 4 -1.68 4 -1 4 C-0.67 2.68 -0.34 1.36 0 0 Z " fill="#A0735E" transform="translate(449,268)"/>
<path d="M0 0 C1.32 0.66 2.64 1.32 4 2 C3.25 8.625 3.25 8.625 1 12 C-0.65 11.67 -2.3 11.34 -4 11 C-4.33 11.66 -4.66 12.32 -5 13 C-4.39254603 8.14036821 -2.27241033 4.2594482 0 0 Z " fill="#895A3E" transform="translate(138,243)"/>
<path d="M0 0 C0 2.31 0 4.62 0 7 C-1.78710586 7.86366822 -3.5798465 8.71568594 -5.375 9.5625 C-6.37273437 10.03816406 -7.37046875 10.51382813 -8.3984375 11.00390625 C-9.25695312 11.33261719 -10.11546875 11.66132813 -11 12 C-11.66 11.67 -12.32 11.34 -13 11 C-11.37807179 9.35113941 -9.75236228 7.7059976 -8.125 6.0625 C-7.22007812 5.14597656 -6.31515625 4.22945312 -5.3828125 3.28515625 C-1.95726496 0 -1.95726496 0 0 0 Z " fill="#AE826D" transform="translate(228,151)"/>
<path d="M0 0 C-0.55106513 3.3063908 -1.09987871 6.19982126 -3 9 C-5.125 9.75 -5.125 9.75 -7 10 C-7.75 7.8125 -7.75 7.8125 -8 5 C-5.50826943 0.84711572 -4.9967847 0 0 0 Z " fill="#A2745A" transform="translate(176,211)"/>
<path d="M0 0 C0.33 0 0.66 0 1 0 C1.08728882 3.24983 1.14048658 6.4993575 1.1875 9.75 C1.22520508 11.13058594 1.22520508 11.13058594 1.26367188 12.5390625 C1.27333984 13.42851562 1.28300781 14.31796875 1.29296875 15.234375 C1.3086792 16.05131836 1.32438965 16.86826172 1.34057617 17.70996094 C0.92379459 20.51240627 -0.16195148 21.88847021 -2 24 C-1.86152362 20.37467934 -1.71297357 16.74984096 -1.5625 13.125 C-1.52318359 12.09246094 -1.48386719 11.05992187 -1.44335938 9.99609375 C-1.40146484 9.00996094 -1.35957031 8.02382813 -1.31640625 7.0078125 C-1.27974854 6.09660645 -1.24309082 5.18540039 -1.20532227 4.24658203 C-1 2 -1 2 0 0 Z " fill="#9F725D" transform="translate(441,280)"/>
<path d="M0 0 C2.13831583 3.20747374 2.53447985 5.11629237 3.125 8.875 C3.29257812 9.90367187 3.46015625 10.93234375 3.6328125 11.9921875 C3.96370366 14.70267889 4.07041464 17.27394734 4 20 C1 18 1 18 0 15 C-0.07029121 12.42734182 -0.09370832 9.88358569 -0.0625 7.3125 C-0.05798828 6.61060547 -0.05347656 5.90871094 -0.04882812 5.18554688 C-0.03706927 3.45699462 -0.01913454 1.72848635 0 0 Z " fill="#AC8367" transform="translate(386,350)"/>
<path d="M0 0 C0 1.32 0 2.64 0 4 C-1.27875 4.061875 -2.5575 4.12375 -3.875 4.1875 C-4.59429687 4.22230469 -5.31359375 4.25710937 -6.0546875 4.29296875 C-6.69664062 4.19628906 -7.33859375 4.09960938 -8 4 C-8.66 3.01 -9.32 2.02 -10 1 C-6.21812119 -0.83691257 -4.05431692 -1.15837626 0 0 Z " fill="#B08469" transform="translate(285,162)"/>
<path d="M0 0 C0.67095703 0.58007812 0.67095703 0.58007812 1.35546875 1.171875 C4.8521026 4.18390075 8.37407463 7.14321031 12 10 C11.67 10.99 11.34 11.98 11 13 C6.47384007 9.32167983 2.60575001 5.58913637 -1 1 C-0.67 0.67 -0.34 0.34 0 0 Z " fill="#B38C68" transform="translate(167,449)"/>
<path d="M0 0 C4.0138236 1.21348155 7.69100609 2.37226954 11 5 C11.3125 7.6875 11.3125 7.6875 11 10 C5.98682507 8.32894169 2.97982006 4.23448114 0 0 Z " fill="#B1856A" transform="translate(292,178)"/>
<path d="M0 0 C0 3 0 3 -1.4375 5.375 C-3.00282114 8.00473952 -3.57112625 9.99788375 -4 13 C-6.475 12.01 -6.475 12.01 -9 11 C-6.62245212 6.50907623 -3.6393937 3.47764287 0 0 Z " fill="#9E7150" transform="translate(424,411)"/>
<path d="M0 0 C2.87950786 2.6008458 4.21737013 4.21728897 5 8 C5.66 8.33 6.32 8.66 7 9 C5.02 9.33 3.04 9.66 1 10 C0.67 6.7 0.34 3.4 0 0 Z " fill="#AF856C" transform="translate(393,355)"/>
<path d="M0 0 C0.33 0 0.66 0 1 0 C1.3125 3.1875 1.3125 3.1875 1 7 C-1.5 9.9375 -1.5 9.9375 -4 12 C-4.33 11.34 -4.66 10.68 -5 10 C-4.00390625 7.6171875 -4.00390625 7.6171875 -2.5625 4.875 C-1.85287109 3.50988281 -1.85287109 3.50988281 -1.12890625 2.1171875 C-0.75636719 1.41851562 -0.38382812 0.71984375 0 0 Z " fill="#9F725D" transform="translate(416,278)"/>
<path d="M0 0 C4.1424367 1.38081223 5.32203099 3.59825558 8 7 C6.35 7.33 4.7 7.66 3 8 C0.9375 5.6875 0.9375 5.6875 -1 3 C-0.67 2.01 -0.34 1.02 0 0 Z " fill="#A0735E" transform="translate(221,319)"/>
<path d="M0 0 C2.52775351 3.79163027 2.22443035 6.80874031 2.125 11.1875 C2.11597656 11.93708984 2.10695313 12.68667969 2.09765625 13.45898438 C2.07412578 15.30612654 2.03825561 17.15310412 2 19 C1.67 19 1.34 19 1 19 C0.63645961 16.58440932 0.28389449 14.16805703 -0.0625 11.75 C-0.2181543 10.72712891 -0.2181543 10.72712891 -0.37695312 9.68359375 C-0.86524925 6.2150075 -1.22762141 3.33088887 0 0 Z " fill="#563A27" transform="translate(511,285)"/>
<path d="M0 0 C0.99 1.32 1.98 2.64 3 4 C2.1875 7.75 2.1875 7.75 1 11 C0.01 11 -0.98 11 -2 11 C-1.34 7.37 -0.68 3.74 0 0 Z " fill="#A1765D" transform="translate(165,260)"/>
<path d="M0 0 C1.95825873 -0.02694851 3.91662226 -0.04637218 5.875 -0.0625 C6.96554687 -0.07410156 8.05609375 -0.08570313 9.1796875 -0.09765625 C12 0 12 0 14 1 C14 1.66 14 2.32 14 3 C12.22844346 2.88570603 10.45773771 2.75816963 8.6875 2.625 C7.70136719 2.55539063 6.71523438 2.48578125 5.69921875 2.4140625 C3 2 3 2 0 0 Z " fill="#B08469" transform="translate(261,164)"/>
<path d="M0 0 C0 0.66 0 1.32 0 2 C-6.75 6 -6.75 6 -9 6 C-9 4.68 -9 3.36 -9 2 C-5.62902617 0.50178941 -3.79557881 0 0 0 Z " fill="#5F3C2C" transform="translate(222,150)"/>
<path d="M0 0 C0.33 0.66 0.66 1.32 1 2 C1.66 2 2.32 2 3 2 C3 3.32 3 4.64 3 6 C3.66 6 4.32 6 5 6 C4.67 7.32 4.34 8.64 4 10 C1.59927045 7.11912454 -0.47291037 4.43595166 -2 1 C-1.34 0.67 -0.68 0.34 0 0 Z " fill="#A47044" transform="translate(143,416)"/>
<path d="M0 0 C2.64 1.98 5.28 3.96 8 6 C6 8 6 8 3 9 C2.01 6.03 1.02 3.06 0 0 Z " fill="#7D6152" transform="translate(437,155)"/>
<path d="M0 0 C0.66 0 1.32 0 2 0 C0.56036361 3.35915158 -1.12416589 5.71624938 -4 8 C-6.25 7.75 -6.25 7.75 -8 7 C-2.25 2 -2.25 2 0 2 C0 1.34 0 0.68 0 0 Z " fill="#A8754D" transform="translate(258,467)"/>
<path d="M0 0 C2.475 0.99 2.475 0.99 5 2 C5.125 4.875 5.125 4.875 5 8 C4.34 8.66 3.68 9.32 3 10 C2.01 6.7 1.02 3.4 0 0 Z " fill="#A17660" transform="translate(433,186)"/>
<path d="M0 0 C2 1 2 1 2.8515625 3.28515625 C3.10679687 4.20167969 3.36203125 5.11820312 3.625 6.0625 C3.88539063 6.98160156 4.14578125 7.90070313 4.4140625 8.84765625 C4.60742188 9.55792969 4.80078125 10.26820313 5 11 C4.01 11.495 4.01 11.495 3 12 C-0.42857143 4.71428571 -0.42857143 4.71428571 0 0 Z " fill="#9F714A" transform="translate(126,383)"/>
<path d="M0 0 C2 3 2 3 1.875 5.4375 C1 8 1 8 -3 12 C-2.01 8.04 -1.02 4.08 0 0 Z " fill="#A27B5D" transform="translate(122,247)"/>
<path d="M0 0 C2.7710688 2.34591852 3.52059284 4.14776201 4.1875 7.6875 C4.34605469 8.49574219 4.50460937 9.30398437 4.66796875 10.13671875 C4.77753906 10.75160156 4.88710938 11.36648437 5 12 C4.34 10.68 3.68 9.36 3 8 C2.34 8 1.68 8 1 8 C0.67 5.36 0.34 2.72 0 0 Z " fill="#603E29" transform="translate(497,234)"/>
<path d="M0 0 C-3.18762365 2.12508244 -5.26512223 2.5020163 -9 3 C-9 2.01 -9 1.02 -9 0 C-5.52176885 -1.15941038 -3.54104422 -0.70820884 0 0 Z " fill="#AC7F52" transform="translate(361,506)"/>
<path d="M0 0 C1.42944945 2.35438733 2.08661261 3.48032433 1.625 6.25 C1.41875 6.8275 1.2125 7.405 1 8 C0.01 7.67 -0.98 7.34 -2 7 C-2 5.35 -2 3.7 -2 2 C-1.34 2 -0.68 2 0 2 C0 1.34 0 0.68 0 0 Z " fill="#A47D50" transform="translate(506,360)"/>
<path d="M0 0 C0.99 0 1.98 0 3 0 C3.33 1.98 3.66 3.96 4 6 C3.01 6 2.02 6 1 6 C0 5 0 5 -0.0625 2.4375 C-0.041875 1.633125 -0.02125 0.82875 0 0 Z " fill="#957149" transform="translate(508,338)"/>
<path d="M0 0 C1.80125336 2.70188004 3.00243753 4.93057703 4 8 C3.67 8.99 3.34 9.98 3 11 C0.9375 8.875 0.9375 8.875 -1 6 C-0.75 2.6875 -0.75 2.6875 0 0 Z " fill="#AE8569" transform="translate(387,336)"/>
<path d="M0 0 C0.99 0 1.98 0 3 0 C4.0326802 2.78823655 4.04509293 3.8677274 3.0625 6.75 C2.711875 7.4925 2.36125 8.235 2 9 C1.67 9 1.34 9 1 9 C0.67 6.03 0.34 3.06 0 0 Z " fill="#A27560" transform="translate(453,287)"/>
<path d="M0 0 C2.4294516 3.6441774 2.16179575 5.71241272 2 10 C1.34 9.67 0.68 9.34 0 9 C-1.28571429 2.57142857 -1.28571429 2.57142857 0 0 Z " fill="#A1745F" transform="translate(428,218)"/>
<path d="M0 0 C0.99 0.33 1.98 0.66 3 1 C3.33 3.64 3.66 6.28 4 9 C1.18167487 7.59083743 0.97406539 5.92219617 0 3 C0 2.01 0 1.02 0 0 Z " fill="#AD856F" transform="translate(464,215)"/>
<path d="M0 0 C0.33 0 0.66 0 1 0 C1.20086443 3.71599191 1.1519437 4.77208445 -1 8 C-1.66 8 -2.32 8 -3 8 C-3.33 7.01 -3.66 6.02 -4 5 C-2.125 2.3125 -2.125 2.3125 0 0 Z " fill="#98705C" transform="translate(151,193)"/>
<path d="M0 0 C1.31602523 0.61754259 2.62773556 1.24428742 3.9375 1.875 C4.66839844 2.22304687 5.39929688 2.57109375 6.15234375 2.9296875 C8 4 8 4 9 6 C6.1875 6.25 6.1875 6.25 3 6 C1.125 4.125 1.125 4.125 0 2 C0 1.34 0 0.68 0 0 Z " fill="#4F372D" transform="translate(415,140)"/>
<path d="M0 0 C0.33 0 0.66 0 1 0 C1.08096803 1.45742463 1.13917774 2.91612807 1.1875 4.375 C1.22230469 5.18710937 1.25710938 5.99921875 1.29296875 6.8359375 C1.19628906 7.55007813 1.09960938 8.26421875 1 9 C0.01 9.66 -0.98 10.32 -2 11 C-1.34 7.37 -0.68 3.74 0 0 Z " fill="#64412D" transform="translate(486,272)"/>
<path d="M0 0 C2 2 2 2 2 5 C0.02 5.99 0.02 5.99 -2 7 C-2 3 -2 3 0 0 Z " fill="#976B51" transform="translate(188,183)"/>
<path d="M0 0 C1.65 0 3.3 0 5 0 C5.33 0.99 5.66 1.98 6 3 C5.34 3.66 4.68 4.32 4 5 C2 3.625 2 3.625 0 2 C0 1.34 0 0.68 0 0 Z " fill="#5E3C2B" transform="translate(436,173)"/>
<path d="M0 0 C3.465 1.485 3.465 1.485 7 3 C6.01 3.33 5.02 3.66 4 4 C3.67 4.66 3.34 5.32 3 6 C1.5 4.6875 1.5 4.6875 0 3 C0 2.01 0 1.02 0 0 Z " fill="#9A7360" transform="translate(399,150)"/>
<path d="M0 0 C1.65 0 3.3 0 5 0 C3.86695008 3.39914975 2.87481525 4.05254451 0 6 C0 4.02 0 2.04 0 0 Z " fill="#976F52" transform="translate(415,401)"/>
<path d="M0 0 C3 1 3 1 4 3 C4.039992 4.99960012 4.04346799 7.00047242 4 9 C1.49701566 6.06171403 0.53069061 3.82097239 0 0 Z " fill="#7C5D51" transform="translate(390,127)"/>
<path d="M0 0 C0.66 0.33 1.32 0.66 2 1 C2 2.32 2 3.64 2 5 C0.68 5.33 -0.64 5.66 -2 6 C-1.34 4.02 -0.68 2.04 0 0 Z " fill="#B5886E" transform="translate(215,279)"/>
<path d="M0 0 C0.33 0.66 0.66 1.32 1 2 C1.99 1.67 2.98 1.34 4 1 C3.34 2.98 2.68 4.96 2 7 C0.4375 5.75 0.4375 5.75 -1 4 C-0.6875 1.8125 -0.6875 1.8125 0 0 Z " fill="#B0846B" transform="translate(265,278)"/>
<path d="M0 0 C1.32 0 2.64 0 4 0 C3.67 1.65 3.34 3.3 3 5 C2.01 5 1.02 5 0 5 C0 3.35 0 1.7 0 0 Z " fill="#AE8269" transform="translate(235,271)"/>
<path d="M0 0 C0.66 0.33 1.32 0.66 2 1 C2 1.99 2 2.98 2 4 C0.68 3.67 -0.64 3.34 -2 3 C-2.33 3.99 -2.66 4.98 -3 6 C-3.66 5.01 -4.32 4.02 -5 3 C-2.625 1.4375 -2.625 1.4375 0 0 Z " fill="#7E5645" transform="translate(220,152)"/>
<path d="M0 0 C4.29 0.33 8.58 0.66 13 1 C13 1.33 13 1.66 13 2 C10.36 2.33 7.72 2.66 5 3 C5 2.34 5 1.68 5 1 C3.35 1 1.7 1 0 1 C0 0.67 0 0.34 0 0 Z " fill="#886354" transform="translate(329,130)"/>
</svg>
